M48
;Layer_Color=9474304
;FILE_FORMAT=2:5
INCH,LZ
;TYPE=PLATED
T1F00S00C0.01181
T2F00S00C0.02800
T3F00S00C0.04331
%
T01
X0015245Y0005216
X0019182
X0023119
X0027056
X0030993
X003493
X0038867
X0042804
X0044772Y0009153
X0040835
X0036898
X0038867Y001309
X0042804
X0046741
X0050678
X0054615
X0058552
X006052Y0017027
X0056583
X0052646
X0048709
X0044772
X0040835
X0036898
X0038867Y0020964
X0042804
X0046741
X0050678
X0054615
X0058552
X0052646Y0024901
Y0032775
Y0040649
Y0048523
X0048709
X0044772
X0040835
X0036898
X003343Y0050716
X0029493
X0025556
X0021619
X0017682
X0013745
X0015245Y0060334
X0019182
X0023119
X0027056
X0029024Y0064271
X0025087
X002115
X0017213
X0032961
X0036898
X0040835
X0044772
X0048709
X0046741Y0060334
X0042804
X0038867
Y0044586
X0042804
X0040835Y0040649
X0036898
X0038867Y0036712
X0042804
X0040835Y0032775
X0036898
X0038867Y0028838
X0042804
X0040835Y0024901
X0036898
X0050678Y005246
X0071705Y0050669
Y0055
X0076035
X0080366
Y0050669
X0076035
Y0046339
X0071705
X0080366
X0090035Y0041
X0086111Y0036712
X0097922
X0097535Y0044
X0100354Y0047819
X0105796Y0044586
X0111701Y0040649
X0115638
X0119575
X0123512
X0127449
X0131386
X0135324
X013926
X0143198
X0147134
X0151072
X0155008
X0158946
X0156977Y0036712
X015304
X0149103
X0145166
Y0044586
X0141229
X0137292
X0133355
X0129418
X0125481
X0121544
X0127449Y0048523
X0131386
X0135324
X013926
X0143198
X0147134
X0151072
X0155008
X0158946
X0156977Y0044586
X015304
X0149103
Y005246
X0145166
X0141229
X0137292
X0133355
X0129418
X0131386Y0056397
X0127449
X0125481Y0060334
X0133355
X0137292
X0141229
X0145166
X0149103
X015304
X0156977
X0158946Y0056397
X0155008
X0151072
X0147134
X0143198
X013926
X0135324
Y0064271
X013926
X0143198
X0147134
X0151072
X0155008
X0158946
X0156977Y005246
X015304
X0151072Y0032775
X0149103Y0028838
X0143198Y0024901
X0141229Y0020964
X0135324Y0017027
X0131386
X0127449
X0123512
X0119575
X0115638
X011367Y001309
X0117607
X0121544
X0125481
X0129418
X0133355
X0127449Y0009153
X0123512Y0024901
X0119575
X0115638
X0117607Y0028838
X0115638Y0032775
X0127449
X0131386
X0129418Y0036712
X0125481
X0133355
X0137292Y0028838
X0103827Y0024901
X009989
X0094535Y00235
X0093985Y0028838
X0088079Y0024901
X0090048Y0020964
Y001309
X0097922
X0101859
X0105796
Y0005216
X0070363Y001309
X0066426Y0020964
X0062489
X0064457Y0024901
X0068394
X0068035Y00305
X0070363Y0036712
X0064035Y00375
X0064457Y0040649
X0062535Y0027
X0065179Y0060999
X0094035Y00605
X0093035Y0064
X0098035Y00575
X0094535Y00535
X0094035Y00505
X0115638Y0064271
X0109733Y0068208
X0111701Y0080019
X0107764
X0103827
X0095953
X0088079
X0084142
X0086111Y0076082
X0080035Y0077999
X0075035Y0078
X0072003Y0070532
X0083535Y00705
X0064457Y0080019
X0115638
X011367Y0083956
X0117607
X0119575Y0087893
X0115638
X0121544Y009183
X0123512Y0095767
X0135324
X0137292Y009183
X013926Y0087893
X0135324
X0137292Y0083956
X0141229
X0145166
X0147134Y0080019
X0143198
X013926
X0135324
X0137292Y0076082
X0141229
X0145166
X0149103
X015304
X0155008Y0072145
X0151072
X0147134
X0143198
X013926
X0135324
X0133355Y0068208
X0137292
X0141229
X0145166
X0149103
X015304
X0156977
X0158946Y0072145
X0151072Y0080019
X0143198Y0087893
X0123512Y0072145
X0061035Y0068
X0042804Y0068208
X0038867
X003493
X0030993
X0027056
X0023119
X0025087Y0072145
X0029024
X0032961
X0036898
X0040835
X0044772
X0042804Y0076082
X0038867
X003493
X0030993
X0032961Y0080019
X0036898
X0040835
X0044772
T02
X0120802Y0052457
T03
X0050535Y00075
X0060535
X0070535
X0080535
X0090535
X0100535
X0110535
X0120535
X010666Y0038315
X0113731Y0045386
X0120802Y0052457
X0129535Y00645
X0099589Y0031244
X0129535Y00745
Y00845
Y00945
M30
