G04 Layer_Color=32896*
%FSLAX25Y25*%
%MOIN*%
G70*
G01*
G75*
%ADD45C,0.00787*%
%ADD46C,0.00700*%
D45*
X124535Y99500D02*
X134535D01*
Y59500D02*
Y99500D01*
X124535Y59500D02*
X134535D01*
X124535D02*
Y99500D01*
X120802Y59528D02*
X127873Y52457D01*
X99589Y24173D02*
X127873Y52457D01*
X92518Y31244D02*
X99589Y24173D01*
X92518Y31244D02*
X120802Y59528D01*
X125535Y2500D02*
Y12500D01*
X45535Y2500D02*
X125535D01*
X45535D02*
Y12500D01*
X125535D01*
D46*
X62801Y17799D02*
X63900D01*
X63350D01*
Y15050D01*
X63900Y14500D01*
X64450D01*
X65000Y15050D01*
X59502Y14500D02*
X61701D01*
X59502Y16699D01*
Y17249D01*
X60052Y17799D01*
X61151D01*
X61701Y17249D01*
X127301Y45299D02*
X128400D01*
X127850D01*
Y42550D01*
X128400Y42000D01*
X128950D01*
X129500Y42550D01*
X124002Y45299D02*
X126201D01*
Y43650D01*
X125101Y44199D01*
X124552D01*
X124002Y43650D01*
Y42550D01*
X124552Y42000D01*
X125651D01*
X126201Y42550D01*
X139801Y64299D02*
X140900D01*
X140350D01*
Y61550D01*
X140900Y61000D01*
X141450D01*
X142000Y61550D01*
X136502Y64299D02*
X137601Y63749D01*
X138701Y62650D01*
Y61550D01*
X138151Y61000D01*
X137052D01*
X136502Y61550D01*
Y62100D01*
X137052Y62650D01*
X138701D01*
M02*
