G04 Layer_Color=8388736*
%FSLAX25Y25*%
%MOIN*%
G70*
G01*
G75*
%ADD50R,0.09461X0.04934*%
%ADD51R,0.04737X0.04934*%
G04:AMPARAMS|DCode=52|XSize=43.43mil|YSize=43.43mil|CornerRadius=12.86mil|HoleSize=0mil|Usage=FLASHONLY|Rotation=90.000|XOffset=0mil|YOffset=0mil|HoleType=Round|Shape=RoundedRectangle|*
%AMROUNDEDRECTD52*
21,1,0.04343,0.01772,0,0,90.0*
21,1,0.01772,0.04343,0,0,90.0*
1,1,0.02572,0.00886,0.00886*
1,1,0.02572,0.00886,-0.00886*
1,1,0.02572,-0.00886,-0.00886*
1,1,0.02572,-0.00886,0.00886*
%
%ADD52ROUNDEDRECTD52*%
%ADD53R,0.04343X0.04343*%
G04:AMPARAMS|DCode=54|XSize=43.43mil|YSize=43.43mil|CornerRadius=12.86mil|HoleSize=0mil|Usage=FLASHONLY|Rotation=180.000|XOffset=0mil|YOffset=0mil|HoleType=Round|Shape=RoundedRectangle|*
%AMROUNDEDRECTD54*
21,1,0.04343,0.01772,0,0,180.0*
21,1,0.01772,0.04343,0,0,180.0*
1,1,0.02572,-0.00886,0.00886*
1,1,0.02572,0.00886,0.00886*
1,1,0.02572,0.00886,-0.00886*
1,1,0.02572,-0.00886,-0.00886*
%
%ADD54ROUNDEDRECTD54*%
%ADD55R,0.01784X0.02178*%
%ADD56R,0.01981X0.02178*%
%ADD57R,0.06312X0.05328*%
G04:AMPARAMS|DCode=58|XSize=74.93mil|YSize=47.37mil|CornerRadius=0mil|HoleSize=0mil|Usage=FLASHONLY|Rotation=225.000|XOffset=0mil|YOffset=0mil|HoleType=Round|Shape=Rectangle|*
%AMROTATEDRECTD58*
4,1,4,0.00974,0.04324,0.04324,0.00974,-0.00974,-0.04324,-0.04324,-0.00974,0.00974,0.04324,0.0*
%
%ADD58ROTATEDRECTD58*%

%ADD59R,0.04147X0.02768*%
G04:AMPARAMS|DCode=60|XSize=43.43mil|YSize=43.43mil|CornerRadius=12.86mil|HoleSize=0mil|Usage=FLASHONLY|Rotation=225.000|XOffset=0mil|YOffset=0mil|HoleType=Round|Shape=RoundedRectangle|*
%AMROUNDEDRECTD60*
21,1,0.04343,0.01772,0,0,225.0*
21,1,0.01772,0.04343,0,0,225.0*
1,1,0.02572,-0.01253,0.00000*
1,1,0.02572,0.00000,0.01253*
1,1,0.02572,0.01253,0.00000*
1,1,0.02572,0.00000,-0.01253*
%
%ADD60ROUNDEDRECTD60*%
G04:AMPARAMS|DCode=61|XSize=31.62mil|YSize=35.56mil|CornerRadius=9.9mil|HoleSize=0mil|Usage=FLASHONLY|Rotation=180.000|XOffset=0mil|YOffset=0mil|HoleType=Round|Shape=RoundedRectangle|*
%AMROUNDEDRECTD61*
21,1,0.03162,0.01575,0,0,180.0*
21,1,0.01181,0.03556,0,0,180.0*
1,1,0.01981,-0.00591,0.00787*
1,1,0.01981,0.00591,0.00787*
1,1,0.01981,0.00591,-0.00787*
1,1,0.01981,-0.00591,-0.00787*
%
%ADD61ROUNDEDRECTD61*%
G04:AMPARAMS|DCode=62|XSize=31.62mil|YSize=35.56mil|CornerRadius=9.9mil|HoleSize=0mil|Usage=FLASHONLY|Rotation=270.000|XOffset=0mil|YOffset=0mil|HoleType=Round|Shape=RoundedRectangle|*
%AMROUNDEDRECTD62*
21,1,0.03162,0.01575,0,0,270.0*
21,1,0.01181,0.03556,0,0,270.0*
1,1,0.01981,-0.00787,-0.00591*
1,1,0.01981,-0.00787,0.00591*
1,1,0.01981,0.00787,0.00591*
1,1,0.01981,0.00787,-0.00591*
%
%ADD62ROUNDEDRECTD62*%
%ADD63P,0.06142X4X360.0*%
%ADD64R,0.04737X0.01784*%
%ADD65O,0.04737X0.01784*%
%ADD66O,0.01784X0.04737*%
%ADD67R,0.14383X0.14383*%
%ADD68R,0.03556X0.02769*%
G04:AMPARAMS|DCode=69|XSize=71mil|YSize=103mil|CornerRadius=0mil|HoleSize=0mil|Usage=FLASHONLY|Rotation=225.000|XOffset=0mil|YOffset=0mil|HoleType=Round|Shape=Rectangle|*
%AMROTATEDRECTD69*
4,1,4,-0.01131,0.06152,0.06152,-0.01131,0.01131,-0.06152,-0.06152,0.01131,-0.01131,0.06152,0.0*
%
%ADD69ROTATEDRECTD69*%

%ADD70C,0.07099*%
%ADD71R,0.07099X0.07099*%
%ADD72P,0.10040X4X270.0*%
%ADD73R,0.07099X0.07099*%
%ADD74C,0.02800*%
D50*
X23499Y60807D02*
D03*
Y49193D02*
D03*
D51*
X17496Y55000D02*
D03*
X29504D02*
D03*
D52*
X91000Y34649D02*
D03*
X91000Y28350D02*
D03*
X69000Y20851D02*
D03*
Y27150D02*
D03*
X110535Y27149D02*
D03*
X110535Y20850D02*
D03*
D53*
X84500Y28351D02*
D03*
Y34650D02*
D03*
D54*
X98685Y70000D02*
D03*
X92386Y70000D02*
D03*
X98685Y77000D02*
D03*
X92386Y77000D02*
D03*
X108685Y55500D02*
D03*
X102386D02*
D03*
X41685Y55000D02*
D03*
X35386D02*
D03*
D55*
X50000Y57978D02*
D03*
Y55222D02*
D03*
D56*
X52067Y57978D02*
D03*
X47933D02*
D03*
Y55222D02*
D03*
X52067D02*
D03*
D57*
X54169Y78543D02*
D03*
Y71457D02*
D03*
X62831D02*
D03*
Y78543D02*
D03*
D58*
X43020Y42480D02*
D03*
X49980Y35520D02*
D03*
D59*
X115480Y75968D02*
D03*
Y72031D02*
D03*
X108591Y72031D02*
D03*
Y75968D02*
D03*
D60*
X38273Y23273D02*
D03*
X42727Y27727D02*
D03*
X30773Y31273D02*
D03*
X35227Y35727D02*
D03*
D61*
X53531Y62499D02*
D03*
X57468D02*
D03*
X61066Y33999D02*
D03*
X65003D02*
D03*
X105505Y64001D02*
D03*
X101567D02*
D03*
D62*
X91501Y39531D02*
D03*
Y43468D02*
D03*
X77035Y74469D02*
D03*
Y70532D02*
D03*
X72035Y74469D02*
D03*
Y70532D02*
D03*
D63*
X123263Y31273D02*
D03*
X118808Y35727D02*
D03*
D64*
X62996Y57559D02*
D03*
D65*
Y55590D02*
D03*
Y53622D02*
D03*
Y51653D02*
D03*
Y49685D02*
D03*
Y47717D02*
D03*
Y45748D02*
D03*
Y43780D02*
D03*
X83075D02*
D03*
Y45748D02*
D03*
Y47717D02*
D03*
Y49685D02*
D03*
Y51653D02*
D03*
Y53622D02*
D03*
Y55590D02*
D03*
Y57559D02*
D03*
D66*
X66146Y40630D02*
D03*
X68114D02*
D03*
X70083D02*
D03*
X72051D02*
D03*
X74020D02*
D03*
X75988D02*
D03*
X77957D02*
D03*
X79925D02*
D03*
Y60709D02*
D03*
X77957D02*
D03*
X75988D02*
D03*
X72051D02*
D03*
X70083D02*
D03*
X68114D02*
D03*
X66146D02*
D03*
X74020D02*
D03*
D67*
X73035Y50669D02*
D03*
D68*
X116673Y21000D02*
D03*
X121791D02*
D03*
D69*
X141535Y33081D02*
D03*
X133116Y24662D02*
D03*
D70*
X129535Y74500D02*
D03*
Y84500D02*
D03*
Y64500D02*
D03*
X106660Y38315D02*
D03*
X113731Y45386D02*
D03*
X99589Y31244D02*
D03*
X60535Y7500D02*
D03*
X80535D02*
D03*
X100535D02*
D03*
X110535D02*
D03*
X90535D02*
D03*
X70535D02*
D03*
X50535D02*
D03*
D71*
X129535Y94500D02*
D03*
D72*
X120802Y52457D02*
D03*
D73*
X120535Y7500D02*
D03*
D74*
X87500Y24000D02*
D03*
X71000Y69497D02*
D03*
X62500Y61000D02*
D03*
X103500Y21000D02*
D03*
X96500Y50500D02*
D03*
X91000Y19500D02*
D03*
X58535Y45500D02*
D03*
X62535Y40000D02*
D03*
X65035Y30500D02*
D03*
X59535Y27000D02*
D03*
X87035Y41000D02*
D03*
X77035Y77999D02*
D03*
X72035Y78000D02*
D03*
X80535Y70500D02*
D03*
X97535Y44000D02*
D03*
X94535Y53500D02*
D03*
X94035Y60500D02*
D03*
X90035Y64000D02*
D03*
X98035Y57500D02*
D03*
X100354Y47819D02*
D03*
X73035Y46339D02*
D03*
X68705Y55000D02*
D03*
X73035D02*
D03*
X77366D02*
D03*
X68705Y50669D02*
D03*
X73035D02*
D03*
X77366D02*
D03*
X68705Y46339D02*
D03*
X77366D02*
D03*
M02*
