G04 Layer_Color=65535*
%FSLAX25Y25*%
%MOIN*%
G70*
G01*
G75*
%ADD28C,0.01000*%
%ADD29C,0.01575*%
%ADD39C,0.00500*%
%ADD40C,0.00600*%
%ADD41C,0.00800*%
%ADD42C,0.00787*%
%ADD43C,0.00700*%
%ADD44R,0.01000X0.02000*%
%ADD45R,0.01181X0.05000*%
%ADD46R,0.01500X0.01000*%
D28*
X61417Y67701D02*
Y80299D01*
X46654Y67701D02*
Y80299D01*
X61417D01*
X46654Y67701D02*
X61417D01*
X114508Y19425D02*
Y22575D01*
X126713Y25497D02*
X133951Y18259D01*
X137153Y20626D02*
X145504Y28977D01*
X129079Y28699D02*
X137431Y37051D01*
D29*
X67024Y60469D02*
G03*
X67024Y60469I-689J0D01*
G01*
D39*
X49098Y57200D02*
G03*
X49098Y55800I0J-700D01*
G01*
X49197Y56850D02*
G03*
X49197Y56150I0J-350D01*
G01*
X3098Y42311D02*
X10972D01*
Y18689D02*
Y42311D01*
X3098Y18689D02*
X10972D01*
X3098D02*
Y42311D01*
X49295Y54532D02*
X49787D01*
X49295Y58469D02*
X49787D01*
X56283Y54532D02*
X56776D01*
X56283Y58469D02*
X56776D01*
Y54532D02*
Y58469D01*
X49295Y54532D02*
Y58469D01*
X4598Y48531D02*
X8535D01*
X4598Y52468D02*
X8535D01*
X57567Y59031D02*
X61504D01*
X57567Y62968D02*
X61504D01*
X96004Y39531D02*
Y43468D01*
X92067Y39531D02*
Y43468D01*
X78067Y70531D02*
Y74468D01*
X82004Y70531D02*
Y74468D01*
X30067Y55032D02*
Y58969D01*
X34004Y55032D02*
Y58969D01*
X73067Y70531D02*
Y74468D01*
X77004Y70531D02*
Y74468D01*
X64067Y32032D02*
X68004D01*
X64067Y35969D02*
X68004D01*
X101567Y65969D02*
X105504D01*
X101567Y62032D02*
X105504D01*
D40*
X92335Y67600D02*
X98635Y67600D01*
X92335Y72400D02*
X98635Y72400D01*
X92335Y74600D02*
X98635Y74600D01*
X92335Y79400D02*
X98635Y79400D01*
X102436Y53100D02*
X108735D01*
X102436Y57900D02*
X108735D01*
X10935Y4300D02*
Y10599D01*
X6135Y4300D02*
Y10599D01*
X38436Y57400D02*
X44735D01*
X38436Y52600D02*
X44735D01*
X74935Y22901D02*
Y29200D01*
X70135Y22901D02*
Y29200D01*
X59435Y32700D02*
X59435Y26401D01*
X54635D02*
X54635Y32700D01*
X66635Y78099D02*
X66635Y71800D01*
X71435D02*
X71435Y78099D01*
X108135Y27099D02*
X108135Y20800D01*
X112935D02*
X112935Y27099D01*
X49935Y32700D02*
X49935Y26401D01*
X45135Y26401D02*
Y32700D01*
X116279Y22772D02*
X121791D01*
X116279Y19228D02*
X121791D01*
D41*
X44240Y44252D02*
X59831D01*
X44240Y35748D02*
X59831D01*
X59831Y44252D01*
X44240Y35748D02*
X44240Y44252D01*
D42*
X84894Y63069D02*
X88435D01*
Y59528D02*
Y63069D01*
Y38269D02*
Y41811D01*
X84894Y38269D02*
X88435D01*
X63634D02*
Y41811D01*
Y38269D02*
X67177D01*
X63634Y59528D02*
Y60668D01*
X66035Y63069D01*
X67177D01*
D43*
X77535Y38299D02*
Y35550D01*
X78085Y35000D01*
X79185D01*
X79735Y35550D01*
Y38299D01*
X83034D02*
X80834D01*
Y36650D01*
X81934Y37199D01*
X82484D01*
X83034Y36650D01*
Y35550D01*
X82484Y35000D01*
X81384D01*
X80834Y35550D01*
X123868Y40833D02*
X121535Y38500D01*
X123091Y36945D01*
X125812Y38111D02*
X126590D01*
X127367Y37334D01*
Y36556D01*
X126978Y36167D01*
X126201D01*
X125812Y36556D01*
X126201Y36167D01*
X126201Y35390D01*
X125812Y35001D01*
X125034D01*
X124257Y35778D01*
Y36556D01*
X44735Y22749D02*
X44185Y23299D01*
X43085D01*
X42535Y22749D01*
Y20550D01*
X43085Y20000D01*
X44185D01*
X44735Y20550D01*
X45834Y20000D02*
X46934D01*
X46384D01*
Y23299D01*
X45834Y22749D01*
X48583D02*
X49133Y23299D01*
X50233D01*
X50783Y22749D01*
Y22199D01*
X50233Y21650D01*
X49683D01*
X50233D01*
X50783Y21100D01*
Y20550D01*
X50233Y20000D01*
X49133D01*
X48583Y20550D01*
X111235Y65749D02*
X110685Y66299D01*
X109585D01*
X109035Y65749D01*
Y63550D01*
X109585Y63000D01*
X110685D01*
X111235Y63550D01*
X112334Y63000D02*
X113434D01*
X112884D01*
Y66299D01*
X112334Y65749D01*
X117283Y63000D02*
X115084D01*
X117283Y65199D01*
Y65749D01*
X116733Y66299D01*
X115633D01*
X115084Y65749D01*
X63735Y30749D02*
X63185Y31299D01*
X62085D01*
X61535Y30749D01*
Y28550D01*
X62085Y28000D01*
X63185D01*
X63735Y28550D01*
X64834Y30749D02*
X65384Y31299D01*
X66484D01*
X67034Y30749D01*
Y30199D01*
X66484Y29649D01*
X65934D01*
X66484D01*
X67034Y29100D01*
Y28550D01*
X66484Y28000D01*
X65384D01*
X64834Y28550D01*
X75735Y82749D02*
X75185Y83299D01*
X74085D01*
X73535Y82749D01*
Y80550D01*
X74085Y80000D01*
X75185D01*
X75735Y80550D01*
X76834Y82749D02*
X77384Y83299D01*
X78484D01*
X79034Y82749D01*
Y82199D01*
X78484Y81650D01*
X79034Y81100D01*
Y80550D01*
X78484Y80000D01*
X77384D01*
X76834Y80550D01*
Y81100D01*
X77384Y81650D01*
X76834Y82199D01*
Y82749D01*
X77384Y81650D02*
X78484D01*
X32235Y65249D02*
X31685Y65799D01*
X30585D01*
X30035Y65249D01*
Y63050D01*
X30585Y62500D01*
X31685D01*
X32235Y63050D01*
X33334Y62500D02*
X34434D01*
X33884D01*
Y65799D01*
X33334Y65249D01*
X103286Y23199D02*
X102736Y22649D01*
Y21550D01*
X103286Y21000D01*
X105486D01*
X106035Y21550D01*
Y22649D01*
X105486Y23199D01*
X106035Y26498D02*
Y24299D01*
X103836Y26498D01*
X103286D01*
X102736Y25948D01*
Y24849D01*
X103286Y24299D01*
X67735Y83249D02*
X67185Y83799D01*
X66085D01*
X65535Y83249D01*
Y81050D01*
X66085Y80500D01*
X67185D01*
X67735Y81050D01*
X68834Y80500D02*
X69934D01*
X69384D01*
Y83799D01*
X68834Y83249D01*
X71583Y80500D02*
X72683D01*
X72133D01*
Y83799D01*
X71583Y83249D01*
X82735Y82749D02*
X82185Y83299D01*
X81085D01*
X80535Y82749D01*
Y80550D01*
X81085Y80000D01*
X82185D01*
X82735Y80550D01*
X83834Y83299D02*
X86034D01*
Y82749D01*
X83834Y80550D01*
Y80000D01*
X94235Y48249D02*
X93685Y48799D01*
X92585D01*
X92035Y48249D01*
Y46050D01*
X92585Y45500D01*
X93685D01*
X94235Y46050D01*
X97534Y48799D02*
X96434Y48249D01*
X95334Y47150D01*
Y46050D01*
X95884Y45500D01*
X96984D01*
X97534Y46050D01*
Y46600D01*
X96984Y47150D01*
X95334D01*
X50235Y62749D02*
X49685Y63299D01*
X48585D01*
X48035Y62749D01*
Y60550D01*
X48585Y60000D01*
X49685D01*
X50235Y60550D01*
X51334Y60000D02*
X52434D01*
X51884D01*
Y63299D01*
X51334Y62749D01*
X54084D02*
X54633Y63299D01*
X55733D01*
X56283Y62749D01*
Y60550D01*
X55733Y60000D01*
X54633D01*
X54084Y60550D01*
Y62749D01*
X55235Y22749D02*
X54685Y23299D01*
X53585D01*
X53035Y22749D01*
Y20550D01*
X53585Y20000D01*
X54685D01*
X55235Y20550D01*
X58534Y20000D02*
X56334D01*
X58534Y22199D01*
Y22749D01*
X57984Y23299D01*
X56884D01*
X56334Y22749D01*
X59633Y23299D02*
X61833D01*
Y22749D01*
X59633Y20550D01*
Y20000D01*
X77286Y23699D02*
X76736Y23149D01*
Y22050D01*
X77286Y21500D01*
X79486D01*
X80035Y22050D01*
Y23149D01*
X79486Y23699D01*
X80035Y26998D02*
Y24799D01*
X77836Y26998D01*
X77286D01*
X76736Y26448D01*
Y25349D01*
X77286Y24799D01*
X76736Y30297D02*
Y28098D01*
X78386D01*
X77836Y29197D01*
Y29747D01*
X78386Y30297D01*
X79486D01*
X80035Y29747D01*
Y28648D01*
X79486Y28098D01*
X40235Y61749D02*
X39685Y62299D01*
X38585D01*
X38035Y61749D01*
Y59550D01*
X38585Y59000D01*
X39685D01*
X40235Y59550D01*
X41334Y59000D02*
X42434D01*
X41884D01*
Y62299D01*
X41334Y61749D01*
X46283Y62299D02*
X45183Y61749D01*
X44083Y60650D01*
Y59550D01*
X44633Y59000D01*
X45733D01*
X46283Y59550D01*
Y60100D01*
X45733Y60650D01*
X44083D01*
X13286Y7199D02*
X12736Y6650D01*
Y5550D01*
X13286Y5000D01*
X15486D01*
X16035Y5550D01*
Y6650D01*
X15486Y7199D01*
X12736Y10498D02*
Y8299D01*
X14386D01*
X13836Y9399D01*
Y9948D01*
X14386Y10498D01*
X15486D01*
X16035Y9948D01*
Y8849D01*
X15486Y8299D01*
X9235Y56749D02*
X8685Y57299D01*
X7585D01*
X7035Y56749D01*
Y54550D01*
X7585Y54000D01*
X8685D01*
X9235Y54550D01*
X11984Y54000D02*
Y57299D01*
X10334Y55650D01*
X12534D01*
X107035Y82299D02*
Y79000D01*
X109235D01*
X112534Y82299D02*
X110334D01*
Y79000D01*
X112534D01*
X110334Y80650D02*
X111434D01*
X113633Y82299D02*
Y79000D01*
X115283D01*
X115833Y79550D01*
Y81749D01*
X115283Y82299D01*
X113633D01*
X116932Y79000D02*
X118032D01*
X117482D01*
Y82299D01*
X116932Y81749D01*
X39035Y39799D02*
Y39249D01*
X40135Y38149D01*
X41235Y39249D01*
Y39799D01*
X40135Y38149D02*
Y36500D01*
X42334D02*
X43434D01*
X42884D01*
Y39799D01*
X42334Y39249D01*
X39035Y78799D02*
Y78249D01*
X40135Y77149D01*
X41235Y78249D01*
Y78799D01*
X40135Y77149D02*
Y75500D01*
X44534D02*
X42334D01*
X44534Y77699D01*
Y78249D01*
X43984Y78799D01*
X42884D01*
X42334Y78249D01*
X49535Y53299D02*
Y50000D01*
X51735D01*
X55034Y52749D02*
X54484Y53299D01*
X53384D01*
X52834Y52749D01*
Y50550D01*
X53384Y50000D01*
X54484D01*
X55034Y50550D01*
X56133Y50000D02*
X57233D01*
X56683D01*
Y53299D01*
X56133Y52749D01*
X112035Y56500D02*
Y59799D01*
X113685D01*
X114235Y59249D01*
Y58149D01*
X113685Y57600D01*
X112035D01*
X113135D02*
X114235Y56500D01*
X115334D02*
X116434D01*
X115884D01*
Y59799D01*
X115334Y59249D01*
X92535Y80500D02*
Y83799D01*
X94185D01*
X94735Y83249D01*
Y82149D01*
X94185Y81600D01*
X92535D01*
X93635D02*
X94735Y80500D01*
X95834Y83249D02*
X96384Y83799D01*
X97484D01*
X98034Y83249D01*
Y82699D01*
X97484Y82149D01*
X96934D01*
X97484D01*
X98034Y81600D01*
Y81050D01*
X97484Y80500D01*
X96384D01*
X95834Y81050D01*
X89035Y67500D02*
X85737D01*
Y69150D01*
X86286Y69699D01*
X87386D01*
X87936Y69150D01*
Y67500D01*
Y68600D02*
X89035Y69699D01*
Y72998D02*
Y70799D01*
X86836Y72998D01*
X86286D01*
X85737Y72448D01*
Y71349D01*
X86286Y70799D01*
X117365Y27694D02*
Y24395D01*
X119014D01*
X119564Y24945D01*
Y27144D01*
X119014Y27694D01*
X117365D01*
X120664Y24395D02*
X121764D01*
X121214D01*
Y27694D01*
X120664Y27144D01*
X16035Y26500D02*
X13836D01*
X12736Y27600D01*
X13836Y28699D01*
X16035D01*
X14386D01*
Y26500D01*
X16035Y29799D02*
X12736D01*
X16035Y31998D01*
X12736D01*
X16035Y33098D02*
Y34198D01*
Y33648D01*
X12736D01*
X13286Y33098D01*
X146491Y39587D02*
X145941Y40137D01*
X144842D01*
X144292Y39587D01*
Y37388D01*
X144842Y36838D01*
X145941D01*
X146491Y37388D01*
X147591D02*
X148141Y36838D01*
X149240D01*
X149790Y37388D01*
Y39587D01*
X149240Y40137D01*
X148141D01*
X147591Y39587D01*
Y39037D01*
X148141Y38488D01*
X149790D01*
X20035Y61799D02*
Y58500D01*
X22235D01*
X23334D02*
X24434D01*
X23884D01*
Y61799D01*
X23334Y61249D01*
D44*
X113035Y74000D02*
D03*
D45*
X112126D02*
D03*
D46*
X113786Y74000D02*
D03*
M02*
