G04 Layer_Color=65535*
%FSLAX25Y25*%
%MOIN*%
G70*
G01*
G75*
%ADD30C,0.01000*%
%ADD34C,0.01575*%
%ADD42C,0.00500*%
%ADD43C,0.00600*%
%ADD44C,0.00800*%
%ADD45C,0.00787*%
%ADD46C,0.00700*%
%ADD47R,0.01000X0.02000*%
%ADD48R,0.01181X0.05000*%
%ADD49R,0.01500X0.01000*%
D30*
X65882Y68701D02*
Y81299D01*
X51118Y68701D02*
Y81299D01*
X65882D01*
X51118Y68701D02*
X65882D01*
X114508Y19425D02*
Y22575D01*
X127966Y24245D02*
X132699Y19512D01*
X137153Y23410D02*
X142721Y28977D01*
X131863Y28699D02*
X137431Y34267D01*
X17148Y10851D02*
X18148Y11851D01*
Y13850D01*
X17148Y14850D01*
X13150D01*
X12150Y13850D01*
Y11851D01*
X13150Y10851D01*
X12150Y5853D02*
X18148D01*
X15149Y8852D01*
Y4853D01*
X139450Y88050D02*
Y94048D01*
X142449D01*
X143449Y93048D01*
Y91049D01*
X142449Y90049D01*
X139450D01*
X145448Y93048D02*
X146448Y94048D01*
X148447D01*
X149447Y93048D01*
Y92049D01*
X148447Y91049D01*
X147447D01*
X148447D01*
X149447Y90049D01*
Y89050D01*
X148447Y88050D01*
X146448D01*
X145448Y89050D01*
D34*
X64024Y60469D02*
G03*
X64024Y60469I-689J0D01*
G01*
D42*
X46161Y56850D02*
G03*
X46161Y56150I0J-350D01*
G01*
X46063Y57200D02*
G03*
X46063Y55800I0J-700D01*
G01*
X2563Y19847D02*
Y43468D01*
Y19847D02*
X10437D01*
Y43468D01*
X2563D02*
X10437D01*
X46260Y54532D02*
Y58469D01*
X53740Y54532D02*
Y58469D01*
X53248D02*
X53740D01*
X53248Y54532D02*
X53740D01*
X46260Y58469D02*
X46752D01*
X46260Y54532D02*
X46752D01*
X53531Y60532D02*
X57468D01*
X53531Y64468D02*
X57468D01*
X93468Y39531D02*
Y43468D01*
X89531Y39531D02*
Y43468D01*
X75067Y70531D02*
Y74468D01*
X79004Y70531D02*
Y74468D01*
X70067Y70531D02*
Y74468D01*
X74004Y70531D02*
Y74468D01*
X61067Y32032D02*
X65004D01*
X61067Y35969D02*
X65004D01*
X103532Y63968D02*
X107468D01*
X103532Y60031D02*
X107468D01*
D43*
X8900Y6901D02*
Y13200D01*
X4100Y6901D02*
Y13200D01*
X26032Y56772D02*
X29969D01*
X26032Y53228D02*
X29969D01*
X28728Y55032D02*
Y58969D01*
X32272Y55032D02*
Y58969D01*
X92335Y67600D02*
X98635Y67600D01*
X92335Y72400D02*
X98635Y72400D01*
X92335Y74600D02*
X98635Y74600D01*
X92335Y79400D02*
X98635Y79400D01*
X102436Y53100D02*
X108735D01*
X102436Y57900D02*
X108735D01*
X35436Y57400D02*
X41735D01*
X35436Y52600D02*
X41735D01*
X71400Y20901D02*
Y27200D01*
X66600Y20901D02*
Y27200D01*
X56400Y34200D02*
X56400Y27901D01*
X51600D02*
X51600Y34200D01*
X108135Y27099D02*
X108135Y20800D01*
X112935D02*
X112935Y27099D01*
X46400Y33700D02*
X46400Y27401D01*
X41600Y27401D02*
Y33700D01*
X116279Y22772D02*
X121791D01*
X116279Y19228D02*
X121791D01*
X93400Y28300D02*
X93400Y34599D01*
X88600D02*
X88600Y28300D01*
D44*
X41205Y45752D02*
X56795D01*
X41205Y37248D02*
X56795D01*
X56795Y45752D01*
X41205Y37248D02*
X41205Y45752D01*
D45*
X81894Y63069D02*
X85435D01*
Y59528D02*
Y63069D01*
Y38269D02*
Y41811D01*
X81894Y38269D02*
X85435D01*
X60634D02*
Y41811D01*
Y38269D02*
X64177D01*
X60634Y59528D02*
Y60668D01*
X63035Y63069D01*
X64177D01*
D46*
X50000Y52799D02*
Y49500D01*
X52199D01*
X55498Y52249D02*
X54948Y52799D01*
X53849D01*
X53299Y52249D01*
Y50050D01*
X53849Y49500D01*
X54948D01*
X55498Y50050D01*
X56598Y49500D02*
X57697D01*
X57148D01*
Y52799D01*
X56598Y52249D01*
X82000Y24799D02*
Y21500D01*
X84199D01*
X85299D02*
X86399D01*
X85849D01*
Y24799D01*
X85299Y24249D01*
X46799Y69805D02*
Y70904D01*
Y70354D01*
X44050D01*
X43500Y70904D01*
Y71454D01*
X44050Y72004D01*
X43500Y68705D02*
Y67605D01*
Y68155D01*
X46799D01*
X46249Y68705D01*
X91699Y24249D02*
X91149Y24799D01*
X90050D01*
X89500Y24249D01*
Y22050D01*
X90050Y21500D01*
X91149D01*
X91699Y22050D01*
X92799Y21500D02*
X93899D01*
X93349D01*
Y24799D01*
X92799Y24249D01*
X74535Y38299D02*
Y35550D01*
X75085Y35000D01*
X76185D01*
X76735Y35550D01*
Y38299D01*
X80034D02*
X77834D01*
Y36650D01*
X78934Y37199D01*
X79484D01*
X80034Y36650D01*
Y35550D01*
X79484Y35000D01*
X78384D01*
X77834Y35550D01*
X123868Y40833D02*
X121535Y38500D01*
X123091Y36945D01*
X125812Y38111D02*
X126590D01*
X127367Y37334D01*
Y36556D01*
X126978Y36167D01*
X126201D01*
X125812Y36556D01*
X126201Y36167D01*
X126201Y35390D01*
X125812Y35001D01*
X125034D01*
X124257Y35778D01*
Y36556D01*
X41199Y23749D02*
X40650Y24299D01*
X39550D01*
X39000Y23749D01*
Y21550D01*
X39550Y21000D01*
X40650D01*
X41199Y21550D01*
X42299Y21000D02*
X43399D01*
X42849D01*
Y24299D01*
X42299Y23749D01*
X45048D02*
X45598Y24299D01*
X46698D01*
X47247Y23749D01*
Y23199D01*
X46698Y22649D01*
X46148D01*
X46698D01*
X47247Y22100D01*
Y21550D01*
X46698Y21000D01*
X45598D01*
X45048Y21550D01*
X113164Y63249D02*
X112614Y63799D01*
X111514D01*
X110965Y63249D01*
Y61050D01*
X111514Y60500D01*
X112614D01*
X113164Y61050D01*
X114263Y60500D02*
X115363D01*
X114813D01*
Y63799D01*
X114263Y63249D01*
X119212Y60500D02*
X117013D01*
X119212Y62699D01*
Y63249D01*
X118662Y63799D01*
X117562D01*
X117013Y63249D01*
X60699Y30749D02*
X60150Y31299D01*
X59050D01*
X58500Y30749D01*
Y28550D01*
X59050Y28000D01*
X60150D01*
X60699Y28550D01*
X61799Y30749D02*
X62349Y31299D01*
X63448D01*
X63998Y30749D01*
Y30199D01*
X63448Y29649D01*
X62899D01*
X63448D01*
X63998Y29100D01*
Y28550D01*
X63448Y28000D01*
X62349D01*
X61799Y28550D01*
X70949Y81992D02*
X70399Y82542D01*
X69300D01*
X68750Y81992D01*
Y79793D01*
X69300Y79243D01*
X70399D01*
X70949Y79793D01*
X72049Y81992D02*
X72599Y82542D01*
X73698D01*
X74248Y81992D01*
Y81443D01*
X73698Y80893D01*
X74248Y80343D01*
Y79793D01*
X73698Y79243D01*
X72599D01*
X72049Y79793D01*
Y80343D01*
X72599Y80893D01*
X72049Y81443D01*
Y81992D01*
X72599Y80893D02*
X73698D01*
X103286Y23199D02*
X102736Y22649D01*
Y21550D01*
X103286Y21000D01*
X105486D01*
X106035Y21550D01*
Y22649D01*
X105486Y23199D01*
X106035Y26498D02*
Y24299D01*
X103836Y26498D01*
X103286D01*
X102736Y25948D01*
Y24849D01*
X103286Y24299D01*
X79199Y81749D02*
X78649Y82299D01*
X77550D01*
X77000Y81749D01*
Y79550D01*
X77550Y79000D01*
X78649D01*
X79199Y79550D01*
X80299Y82299D02*
X82498D01*
Y81749D01*
X80299Y79550D01*
Y79000D01*
X96699Y42249D02*
X96149Y42799D01*
X95050D01*
X94500Y42249D01*
Y40050D01*
X95050Y39500D01*
X96149D01*
X96699Y40050D01*
X99998Y42799D02*
X98899Y42249D01*
X97799Y41150D01*
Y40050D01*
X98349Y39500D01*
X99448D01*
X99998Y40050D01*
Y40600D01*
X99448Y41150D01*
X97799D01*
X44699Y65749D02*
X44150Y66299D01*
X43050D01*
X42500Y65749D01*
Y63550D01*
X43050Y63000D01*
X44150D01*
X44699Y63550D01*
X45799Y63000D02*
X46899D01*
X46349D01*
Y66299D01*
X45799Y65749D01*
X48548D02*
X49098Y66299D01*
X50197D01*
X50747Y65749D01*
Y63550D01*
X50197Y63000D01*
X49098D01*
X48548Y63550D01*
Y65749D01*
X52199Y24249D02*
X51649Y24799D01*
X50550D01*
X50000Y24249D01*
Y22050D01*
X50550Y21500D01*
X51649D01*
X52199Y22050D01*
X55498Y21500D02*
X53299D01*
X55498Y23699D01*
Y24249D01*
X54948Y24799D01*
X53849D01*
X53299Y24249D01*
X56598Y24799D02*
X58797D01*
Y24249D01*
X56598Y22050D01*
Y21500D01*
X73751Y21699D02*
X73201Y21149D01*
Y20050D01*
X73751Y19500D01*
X75950D01*
X76500Y20050D01*
Y21149D01*
X75950Y21699D01*
X76500Y24998D02*
Y22799D01*
X74301Y24998D01*
X73751D01*
X73201Y24448D01*
Y23349D01*
X73751Y22799D01*
X73201Y28297D02*
Y26098D01*
X74850D01*
X74301Y27198D01*
Y27747D01*
X74850Y28297D01*
X75950D01*
X76500Y27747D01*
Y26648D01*
X75950Y26098D01*
X37235Y61749D02*
X36685Y62299D01*
X35585D01*
X35035Y61749D01*
Y59550D01*
X35585Y59000D01*
X36685D01*
X37235Y59550D01*
X38334Y59000D02*
X39434D01*
X38884D01*
Y62299D01*
X38334Y61749D01*
X43283Y62299D02*
X42183Y61749D01*
X41083Y60650D01*
Y59550D01*
X41633Y59000D01*
X42733D01*
X43283Y59550D01*
Y60100D01*
X42733Y60650D01*
X41083D01*
X106500Y82299D02*
Y79000D01*
X108699D01*
X111998Y82299D02*
X109799D01*
Y79000D01*
X111998D01*
X109799Y80650D02*
X110899D01*
X113098Y82299D02*
Y79000D01*
X114747D01*
X115297Y79550D01*
Y81749D01*
X114747Y82299D01*
X113098D01*
X116397Y79000D02*
X117496D01*
X116947D01*
Y82299D01*
X116397Y81749D01*
X36000Y41299D02*
Y40749D01*
X37100Y39650D01*
X38199Y40749D01*
Y41299D01*
X37100Y39650D02*
Y38000D01*
X39299D02*
X40399D01*
X39849D01*
Y41299D01*
X39299Y40749D01*
X43500Y79799D02*
Y79249D01*
X44600Y78149D01*
X45699Y79249D01*
Y79799D01*
X44600Y78149D02*
Y76500D01*
X48998D02*
X46799D01*
X48998Y78699D01*
Y79249D01*
X48448Y79799D01*
X47349D01*
X46799Y79249D01*
X112000Y56500D02*
Y59799D01*
X113649D01*
X114199Y59249D01*
Y58149D01*
X113649Y57600D01*
X112000D01*
X113100D02*
X114199Y56500D01*
X115299D02*
X116399D01*
X115849D01*
Y59799D01*
X115299Y59249D01*
X92535Y80500D02*
Y83799D01*
X94185D01*
X94735Y83249D01*
Y82149D01*
X94185Y81600D01*
X92535D01*
X93635D02*
X94735Y80500D01*
X95834Y83249D02*
X96384Y83799D01*
X97484D01*
X98034Y83249D01*
Y82699D01*
X97484Y82149D01*
X96934D01*
X97484D01*
X98034Y81600D01*
Y81050D01*
X97484Y80500D01*
X96384D01*
X95834Y81050D01*
X92500Y63000D02*
Y66299D01*
X94150D01*
X94699Y65749D01*
Y64649D01*
X94150Y64100D01*
X92500D01*
X93600D02*
X94699Y63000D01*
X97998D02*
X95799D01*
X97998Y65199D01*
Y65749D01*
X97448Y66299D01*
X96349D01*
X95799Y65749D01*
X117365Y27694D02*
Y24395D01*
X119014D01*
X119564Y24945D01*
Y27144D01*
X119014Y27694D01*
X117365D01*
X120664Y24395D02*
X121764D01*
X121214D01*
Y27694D01*
X120664Y27144D01*
X146491Y39587D02*
X145941Y40137D01*
X144842D01*
X144292Y39587D01*
Y37388D01*
X144842Y36838D01*
X145941D01*
X146491Y37388D01*
X147591D02*
X148141Y36838D01*
X149240D01*
X149790Y37388D01*
Y39587D01*
X149240Y40137D01*
X148141D01*
X147591Y39587D01*
Y39037D01*
X148141Y38488D01*
X149790D01*
D47*
X113035Y74000D02*
D03*
D48*
X112126D02*
D03*
D49*
X113786Y74000D02*
D03*
M02*
