G04 Layer_Color=16711935*
%FSLAX25Y25*%
%MOIN*%
G70*
G01*
G75*
%ADD65C,0.07099*%
%ADD66R,0.07099X0.07099*%
%ADD67P,0.10040X4X270.0*%
%ADD68R,0.07099X0.07099*%
%ADD69C,0.02768*%
%ADD70C,0.05800*%
D65*
X129535Y74500D02*
D03*
Y84500D02*
D03*
Y64500D02*
D03*
X106660Y38315D02*
D03*
X113731Y45386D02*
D03*
X99589Y31244D02*
D03*
X60535Y7500D02*
D03*
X80535D02*
D03*
X100535D02*
D03*
X110535D02*
D03*
X90535D02*
D03*
X70535D02*
D03*
X50535D02*
D03*
D66*
X129535Y94500D02*
D03*
D67*
X120802Y52457D02*
D03*
D68*
X120535Y7500D02*
D03*
D69*
X90035Y41000D02*
D03*
X64035Y37500D02*
D03*
X80035Y77999D02*
D03*
X75035Y78000D02*
D03*
X83535Y70500D02*
D03*
X68035Y30500D02*
D03*
X97535Y44000D02*
D03*
X94535Y53500D02*
D03*
X94035Y60500D02*
D03*
X93035Y64000D02*
D03*
X98035Y57500D02*
D03*
X94035Y50500D02*
D03*
X100354Y47819D02*
D03*
X62535Y27000D02*
D03*
X94535Y23500D02*
D03*
X72003Y70532D02*
D03*
X65179Y60999D02*
D03*
X61035Y68000D02*
D03*
X76035Y46339D02*
D03*
X71705Y55000D02*
D03*
X76035D02*
D03*
X80366D02*
D03*
X71705Y50669D02*
D03*
X76035D02*
D03*
X80366D02*
D03*
X71705Y46339D02*
D03*
X80366D02*
D03*
D70*
X120802Y52457D02*
D03*
M02*
