G04 Layer_Color=255*
%FSLAX25Y25*%
%MOIN*%
G70*
G01*
G75*
%ADD10R,0.03543X0.03543*%
%ADD11R,0.08268X0.04331*%
G04:AMPARAMS|DCode=12|XSize=35.43mil|YSize=35.43mil|CornerRadius=8.86mil|HoleSize=0mil|Usage=FLASHONLY|Rotation=180.000|XOffset=0mil|YOffset=0mil|HoleType=Round|Shape=RoundedRectangle|*
%AMROUNDEDRECTD12*
21,1,0.03543,0.01772,0,0,180.0*
21,1,0.01772,0.03543,0,0,180.0*
1,1,0.01772,-0.00886,0.00886*
1,1,0.01772,0.00886,0.00886*
1,1,0.01772,0.00886,-0.00886*
1,1,0.01772,-0.00886,-0.00886*
%
%ADD12ROUNDEDRECTD12*%
%ADD13R,0.00984X0.01378*%
%ADD14R,0.01181X0.01378*%
%ADD15R,0.05512X0.04528*%
%ADD16R,0.03937X0.06693*%
%ADD17R,0.03347X0.01968*%
G04:AMPARAMS|DCode=18|XSize=23.62mil|YSize=27.56mil|CornerRadius=5.91mil|HoleSize=0mil|Usage=FLASHONLY|Rotation=0.000|XOffset=0mil|YOffset=0mil|HoleType=Round|Shape=RoundedRectangle|*
%AMROUNDEDRECTD18*
21,1,0.02362,0.01575,0,0,0.0*
21,1,0.01181,0.02756,0,0,0.0*
1,1,0.01181,0.00591,-0.00787*
1,1,0.01181,-0.00591,-0.00787*
1,1,0.01181,-0.00591,0.00787*
1,1,0.01181,0.00591,0.00787*
%
%ADD18ROUNDEDRECTD18*%
G04:AMPARAMS|DCode=19|XSize=35.43mil|YSize=35.43mil|CornerRadius=8.86mil|HoleSize=0mil|Usage=FLASHONLY|Rotation=90.000|XOffset=0mil|YOffset=0mil|HoleType=Round|Shape=RoundedRectangle|*
%AMROUNDEDRECTD19*
21,1,0.03543,0.01772,0,0,90.0*
21,1,0.01772,0.03543,0,0,90.0*
1,1,0.01772,0.00886,0.00886*
1,1,0.01772,0.00886,-0.00886*
1,1,0.01772,-0.00886,-0.00886*
1,1,0.01772,-0.00886,0.00886*
%
%ADD19ROUNDEDRECTD19*%
G04:AMPARAMS|DCode=20|XSize=23.62mil|YSize=27.56mil|CornerRadius=5.91mil|HoleSize=0mil|Usage=FLASHONLY|Rotation=270.000|XOffset=0mil|YOffset=0mil|HoleType=Round|Shape=RoundedRectangle|*
%AMROUNDEDRECTD20*
21,1,0.02362,0.01575,0,0,270.0*
21,1,0.01181,0.02756,0,0,270.0*
1,1,0.01181,-0.00787,-0.00591*
1,1,0.01181,-0.00787,0.00591*
1,1,0.01181,0.00787,0.00591*
1,1,0.01181,0.00787,-0.00591*
%
%ADD20ROUNDEDRECTD20*%
%ADD21P,0.05011X4X360.0*%
%ADD22R,0.03937X0.00984*%
%ADD23O,0.03937X0.00984*%
%ADD24O,0.00984X0.03937*%
%ADD25R,0.13583X0.13583*%
%ADD26R,0.02756X0.01969*%
G04:AMPARAMS|DCode=27|XSize=63mil|YSize=95mil|CornerRadius=0mil|HoleSize=0mil|Usage=FLASHONLY|Rotation=225.000|XOffset=0mil|YOffset=0mil|HoleType=Round|Shape=Rectangle|*
%AMROTATEDRECTD27*
4,1,4,-0.01131,0.05586,0.05586,-0.01131,0.01131,-0.05586,-0.05586,0.01131,-0.01131,0.05586,0.0*
%
%ADD27ROTATEDRECTD27*%

%ADD33C,0.06299*%
%ADD34R,0.06299X0.06299*%
%ADD35P,0.08908X4X270.0*%
%ADD36R,0.06299X0.06299*%
D10*
X25685Y55000D02*
D03*
X19386D02*
D03*
D11*
X7035Y40343D02*
D03*
Y30500D02*
D03*
Y20658D02*
D03*
D12*
X98685Y70000D02*
D03*
X92386Y70000D02*
D03*
X98685Y77000D02*
D03*
X92386Y77000D02*
D03*
X108685Y55500D02*
D03*
X102386D02*
D03*
X44685Y55000D02*
D03*
X38386D02*
D03*
D13*
X53035Y57878D02*
D03*
Y55122D02*
D03*
D14*
X55102Y57878D02*
D03*
X50968D02*
D03*
Y55122D02*
D03*
X55102D02*
D03*
D15*
X49705Y77543D02*
D03*
Y70457D02*
D03*
X58366D02*
D03*
Y77543D02*
D03*
D16*
X47114Y40000D02*
D03*
X56957D02*
D03*
D17*
X115480Y75968D02*
D03*
Y72031D02*
D03*
X108591Y72031D02*
D03*
Y75968D02*
D03*
D18*
X4598Y50500D02*
D03*
X8535D02*
D03*
X57566Y60999D02*
D03*
X61503D02*
D03*
X64066Y33999D02*
D03*
X68003D02*
D03*
X105505Y64001D02*
D03*
X101567D02*
D03*
D19*
X8535Y4350D02*
D03*
Y10649D02*
D03*
X72536Y22851D02*
D03*
Y29150D02*
D03*
X57036Y26351D02*
D03*
Y32650D02*
D03*
X69035Y78149D02*
D03*
X69035Y71850D02*
D03*
X110535Y27149D02*
D03*
X110535Y20850D02*
D03*
X47536Y26351D02*
D03*
X47536Y32650D02*
D03*
D20*
X94036Y39531D02*
D03*
Y43468D02*
D03*
X80035Y74469D02*
D03*
Y70532D02*
D03*
X32036Y58968D02*
D03*
Y55031D02*
D03*
X75035Y74469D02*
D03*
Y70532D02*
D03*
D21*
X123263Y31273D02*
D03*
X118808Y35727D02*
D03*
D22*
X65996Y57559D02*
D03*
D23*
Y55590D02*
D03*
Y53622D02*
D03*
Y51653D02*
D03*
Y49685D02*
D03*
Y47717D02*
D03*
Y45748D02*
D03*
Y43780D02*
D03*
X86075D02*
D03*
Y45748D02*
D03*
Y47717D02*
D03*
Y49685D02*
D03*
Y51653D02*
D03*
Y53622D02*
D03*
Y55590D02*
D03*
Y57559D02*
D03*
D24*
X69146Y40630D02*
D03*
X71114D02*
D03*
X73083D02*
D03*
X75051D02*
D03*
X77020D02*
D03*
X78988D02*
D03*
X80957D02*
D03*
X82925D02*
D03*
Y60709D02*
D03*
X80957D02*
D03*
X78988D02*
D03*
X75051D02*
D03*
X73083D02*
D03*
X71114D02*
D03*
X69146D02*
D03*
X77020D02*
D03*
D25*
X76035Y50669D02*
D03*
D26*
X116673Y21000D02*
D03*
X121791D02*
D03*
D27*
X141535Y33081D02*
D03*
X133116Y24662D02*
D03*
D33*
X129535Y74500D02*
D03*
Y84500D02*
D03*
Y64500D02*
D03*
X106660Y38315D02*
D03*
X113731Y45386D02*
D03*
X99589Y31244D02*
D03*
X60535Y7500D02*
D03*
X80535D02*
D03*
X100535D02*
D03*
X110535D02*
D03*
X90535D02*
D03*
X70535D02*
D03*
X50535D02*
D03*
D34*
X129535Y94500D02*
D03*
D35*
X120802Y52457D02*
D03*
D36*
X120535Y7500D02*
D03*
M02*
