G04 Layer_Physical_Order=2*
G04 Layer_Color=16711680*
%FSLAX25Y25*%
%MOIN*%
G70*
G01*
G75*
%ADD28C,0.01000*%
%ADD29C,0.01575*%
%ADD32C,0.01968*%
%ADD33C,0.06299*%
%ADD34R,0.06299X0.06299*%
%ADD35P,0.08908X4X270.0*%
%ADD36R,0.06299X0.06299*%
%ADD37C,0.01968*%
%ADD38C,0.05000*%
G36*
X161643Y72423D02*
Y39077D01*
X123959Y1393D01*
X6112D01*
X1505Y6000D01*
X1664Y6500D01*
X35035Y6500D01*
X35035Y49000D01*
X1393Y49000D01*
Y51388D01*
X33612Y83607D01*
X108535D01*
X109069Y83713D01*
X109520Y84015D01*
X125112Y99607D01*
X134458D01*
X161643Y72423D01*
D02*
G37*
%LPC*%
G36*
X80535Y11550D02*
X79487Y11412D01*
X78510Y11008D01*
X77671Y10364D01*
X77028Y9525D01*
X76623Y8548D01*
X76485Y7500D01*
X76623Y6452D01*
X77028Y5475D01*
X77671Y4636D01*
X78510Y3992D01*
X79487Y3588D01*
X80535Y3450D01*
X81584Y3588D01*
X82561Y3992D01*
X83399Y4636D01*
X84043Y5475D01*
X84448Y6452D01*
X84586Y7500D01*
X84448Y8548D01*
X84043Y9525D01*
X83399Y10364D01*
X82561Y11008D01*
X81584Y11412D01*
X80535Y11550D01*
D02*
G37*
G36*
X90535D02*
X89487Y11412D01*
X88510Y11008D01*
X87671Y10364D01*
X87028Y9525D01*
X86623Y8548D01*
X86485Y7500D01*
X86623Y6452D01*
X87028Y5475D01*
X87671Y4636D01*
X88510Y3992D01*
X89487Y3588D01*
X90535Y3450D01*
X91584Y3588D01*
X92561Y3992D01*
X93400Y4636D01*
X94043Y5475D01*
X94448Y6452D01*
X94586Y7500D01*
X94448Y8548D01*
X94043Y9525D01*
X93400Y10364D01*
X92561Y11008D01*
X91584Y11412D01*
X90535Y11550D01*
D02*
G37*
G36*
X100535D02*
X99487Y11412D01*
X98510Y11008D01*
X97671Y10364D01*
X97028Y9525D01*
X96623Y8548D01*
X96485Y7500D01*
X96623Y6452D01*
X97028Y5475D01*
X97671Y4636D01*
X98510Y3992D01*
X99487Y3588D01*
X100535Y3450D01*
X101584Y3588D01*
X102561Y3992D01*
X103400Y4636D01*
X104043Y5475D01*
X104448Y6452D01*
X104586Y7500D01*
X104448Y8548D01*
X104043Y9525D01*
X103400Y10364D01*
X102561Y11008D01*
X101584Y11412D01*
X100535Y11550D01*
D02*
G37*
G36*
X70535D02*
X69487Y11412D01*
X68510Y11008D01*
X67671Y10364D01*
X67028Y9525D01*
X66623Y8548D01*
X66485Y7500D01*
X66623Y6452D01*
X67028Y5475D01*
X67671Y4636D01*
X68510Y3992D01*
X69487Y3588D01*
X70535Y3450D01*
X71584Y3588D01*
X72561Y3992D01*
X73400Y4636D01*
X74043Y5475D01*
X74448Y6452D01*
X74586Y7500D01*
X74448Y8548D01*
X74043Y9525D01*
X73400Y10364D01*
X72561Y11008D01*
X71584Y11412D01*
X70535Y11550D01*
D02*
G37*
G36*
X124705Y7000D02*
X121035D01*
Y3331D01*
X123685D01*
X124075Y3408D01*
X124406Y3629D01*
X124627Y3960D01*
X124705Y4350D01*
Y7000D01*
D02*
G37*
G36*
X120035D02*
X116366D01*
Y4350D01*
X116444Y3960D01*
X116665Y3629D01*
X116996Y3408D01*
X117386Y3331D01*
X120035D01*
Y7000D01*
D02*
G37*
G36*
X54655D02*
X51035D01*
Y3380D01*
X51619Y3457D01*
X52628Y3875D01*
X53495Y4541D01*
X54160Y5407D01*
X54578Y6417D01*
X54655Y7000D01*
D02*
G37*
G36*
X50035D02*
X46416D01*
X46493Y6417D01*
X46911Y5407D01*
X47576Y4541D01*
X48443Y3875D01*
X49452Y3457D01*
X50035Y3380D01*
Y7000D01*
D02*
G37*
G36*
X72003Y72419D02*
X71281Y72275D01*
X70669Y71866D01*
X70260Y71254D01*
X70117Y70532D01*
X70260Y69810D01*
X70610Y69286D01*
Y68401D01*
X65075Y62865D01*
X64457Y62742D01*
X63845Y62333D01*
X63436Y61721D01*
X63293Y60999D01*
X63436Y60277D01*
X63845Y59665D01*
X64457Y59256D01*
X65179Y59113D01*
X65901Y59256D01*
X66513Y59665D01*
X66922Y60277D01*
X67045Y60896D01*
X72988Y66839D01*
X73290Y67291D01*
X73396Y67823D01*
Y69286D01*
X73747Y69810D01*
X73890Y70532D01*
X73747Y71254D01*
X73338Y71866D01*
X72725Y72275D01*
X72003Y72419D01*
D02*
G37*
G36*
X96323Y33804D02*
X95964Y33337D01*
X95546Y32327D01*
X95404Y31244D01*
X95546Y30161D01*
X95964Y29151D01*
X96323Y28685D01*
X98882Y31244D01*
X96323Y33804D01*
D02*
G37*
G36*
X129535Y88550D02*
X128487Y88412D01*
X127510Y88008D01*
X126671Y87364D01*
X126028Y86525D01*
X125623Y85548D01*
X125485Y84500D01*
X125623Y83452D01*
X126028Y82475D01*
X126671Y81636D01*
X127510Y80992D01*
X128487Y80588D01*
X129535Y80450D01*
X130584Y80588D01*
X131561Y80992D01*
X132399Y81636D01*
X133043Y82475D01*
X133448Y83452D01*
X133586Y84500D01*
X133448Y85548D01*
X133043Y86525D01*
X132399Y87364D01*
X131561Y88008D01*
X130584Y88412D01*
X129535Y88550D01*
D02*
G37*
G36*
X132685Y98533D02*
X126386D01*
X126048Y98466D01*
X125761Y98274D01*
X125570Y97988D01*
X125503Y97650D01*
Y92437D01*
X120551Y87485D01*
X120249Y87033D01*
X120142Y86500D01*
Y76077D01*
X109458Y65393D01*
X94281D01*
X93757Y65743D01*
X93035Y65887D01*
X92313Y65743D01*
X91701Y65334D01*
X91597Y65177D01*
X91398Y65165D01*
X91033Y65234D01*
X90728Y65692D01*
X85299Y71121D01*
X85278Y71222D01*
X84869Y71834D01*
X84257Y72243D01*
X83535Y72387D01*
X82813Y72243D01*
X82201Y71834D01*
X81792Y71222D01*
X81649Y70500D01*
X81792Y69778D01*
X82201Y69166D01*
X82813Y68757D01*
X82914Y68737D01*
X87849Y63802D01*
Y60991D01*
X87978Y60346D01*
X88343Y59799D01*
X89015Y59127D01*
Y50104D01*
X89143Y49459D01*
X89509Y48912D01*
X95613Y42808D01*
X95805Y42680D01*
X95833Y42182D01*
X85837Y32186D01*
X68843D01*
X68757Y32243D01*
X68035Y32387D01*
X67313Y32243D01*
X66701Y31834D01*
X66292Y31222D01*
X66149Y30500D01*
X66292Y29778D01*
X66701Y29166D01*
X67313Y28757D01*
X68035Y28613D01*
X68757Y28757D01*
X68843Y28814D01*
X86837D01*
X92772Y22879D01*
X92792Y22778D01*
X93201Y22166D01*
X93813Y21757D01*
X94535Y21613D01*
X95257Y21757D01*
X95869Y22166D01*
X96279Y22778D01*
X96422Y23500D01*
X96279Y24222D01*
X95869Y24834D01*
X95257Y25243D01*
X95157Y25263D01*
X89420Y31000D01*
X98642Y40223D01*
X98973Y40143D01*
X99142Y40030D01*
Y37000D01*
X99249Y36467D01*
X99550Y36015D01*
X99683Y35883D01*
X99448Y35411D01*
X98506Y35287D01*
X97496Y34869D01*
X97030Y34511D01*
X99943Y31598D01*
X102856Y28685D01*
X103214Y29151D01*
X103632Y30161D01*
X103756Y31103D01*
X104228Y31338D01*
X105142Y30423D01*
Y20077D01*
X101959Y16893D01*
X65535D01*
X65002Y16787D01*
X64551Y16485D01*
X59550Y11485D01*
X59504Y11415D01*
X59487Y11412D01*
X58510Y11008D01*
X57671Y10364D01*
X57028Y9525D01*
X56623Y8548D01*
X56485Y7500D01*
X56623Y6452D01*
X57028Y5475D01*
X57671Y4636D01*
X58510Y3992D01*
X59487Y3588D01*
X60535Y3450D01*
X61584Y3588D01*
X62561Y3992D01*
X63399Y4636D01*
X64043Y5475D01*
X64448Y6452D01*
X64586Y7500D01*
X64448Y8548D01*
X64043Y9525D01*
X63399Y10364D01*
X63117Y10581D01*
X63085Y11079D01*
X66112Y14107D01*
X102535D01*
X103068Y14213D01*
X103520Y14515D01*
X107520Y18515D01*
X107822Y18967D01*
X107928Y19500D01*
Y31000D01*
X107822Y31533D01*
X107520Y31985D01*
X105606Y33899D01*
X105840Y34373D01*
X106660Y34265D01*
X107708Y34403D01*
X108243Y34624D01*
X108712Y34155D01*
Y16109D01*
X108649Y15789D01*
X108649Y15789D01*
Y11065D01*
X108510Y11008D01*
X107671Y10364D01*
X107028Y9525D01*
X106623Y8548D01*
X106485Y7500D01*
X106623Y6452D01*
X107028Y5475D01*
X107671Y4636D01*
X108510Y3992D01*
X109487Y3588D01*
X110535Y3450D01*
X111584Y3588D01*
X112561Y3992D01*
X113400Y4636D01*
X114043Y5475D01*
X114448Y6452D01*
X114586Y7500D01*
X114448Y8548D01*
X114043Y9525D01*
X113400Y10364D01*
X112561Y11008D01*
X112422Y11065D01*
Y15533D01*
X112486Y15853D01*
Y34936D01*
X112486Y34936D01*
X112342Y35658D01*
X111933Y36270D01*
X110615Y37589D01*
X110711Y38315D01*
X110573Y39364D01*
X110168Y40341D01*
X109524Y41179D01*
X108685Y41823D01*
X107708Y42228D01*
X106660Y42366D01*
X105612Y42228D01*
X104635Y41823D01*
X103796Y41179D01*
X103152Y40341D01*
X102748Y39364D01*
X102610Y38315D01*
X102715Y37519D01*
X102291Y37311D01*
X101928Y37602D01*
Y46844D01*
X102097Y47097D01*
X102241Y47819D01*
X102097Y48541D01*
X102014Y48666D01*
X102249Y49107D01*
X107458D01*
X109910Y46655D01*
X109819Y46435D01*
X109681Y45386D01*
X109819Y44338D01*
X110223Y43361D01*
X110867Y42522D01*
X111706Y41879D01*
X112683Y41474D01*
X113731Y41336D01*
X114779Y41474D01*
X115756Y41879D01*
X116595Y42522D01*
X117239Y43361D01*
X117644Y44338D01*
X117782Y45386D01*
X117644Y46435D01*
X117239Y47412D01*
X116595Y48250D01*
X115756Y48894D01*
X114779Y49299D01*
X113731Y49437D01*
X112683Y49299D01*
X111706Y48894D01*
X111652Y48853D01*
X109020Y51485D01*
X108837Y51607D01*
X108989Y52107D01*
X115540D01*
X115724Y51833D01*
X120178Y47379D01*
X120464Y47187D01*
X120802Y47120D01*
X121140Y47187D01*
X121427Y47379D01*
X125881Y51833D01*
X126072Y52119D01*
X126140Y52457D01*
X126072Y52795D01*
X125881Y53082D01*
X121427Y57536D01*
X121140Y57727D01*
X120802Y57795D01*
X120464Y57727D01*
X120178Y57536D01*
X117535Y54893D01*
X95781D01*
X95257Y55243D01*
X94535Y55387D01*
X93813Y55243D01*
X93201Y54834D01*
X92887Y54363D01*
X92387Y54515D01*
Y58805D01*
X92887Y59042D01*
X93313Y58757D01*
X94035Y58613D01*
X94757Y58757D01*
X95369Y59166D01*
X95664Y59607D01*
X96958D01*
X97110Y59107D01*
X96701Y58834D01*
X96292Y58222D01*
X96149Y57500D01*
X96292Y56778D01*
X96701Y56166D01*
X97313Y55757D01*
X98035Y55613D01*
X98757Y55757D01*
X99370Y56166D01*
X99664Y56607D01*
X117035D01*
X117569Y56713D01*
X118020Y57015D01*
X124112Y63107D01*
X125766D01*
X126028Y62475D01*
X126671Y61636D01*
X127510Y60992D01*
X128487Y60588D01*
X129535Y60450D01*
X130584Y60588D01*
X131561Y60992D01*
X132399Y61636D01*
X133043Y62475D01*
X133448Y63452D01*
X133586Y64500D01*
X133448Y65548D01*
X133043Y66525D01*
X132399Y67364D01*
X131561Y68008D01*
X130584Y68412D01*
X129535Y68550D01*
X128487Y68412D01*
X127510Y68008D01*
X126671Y67364D01*
X126028Y66525D01*
X125766Y65893D01*
X123605D01*
X123480Y66058D01*
X123376Y66371D01*
X127855Y70850D01*
X128487Y70588D01*
X129535Y70450D01*
X130584Y70588D01*
X131561Y70992D01*
X132399Y71636D01*
X133043Y72475D01*
X133448Y73452D01*
X133586Y74500D01*
X133448Y75548D01*
X133043Y76525D01*
X132399Y77364D01*
X131561Y78008D01*
X130584Y78412D01*
X129535Y78550D01*
X128487Y78412D01*
X127510Y78008D01*
X126671Y77364D01*
X126028Y76525D01*
X125623Y75548D01*
X125485Y74500D01*
X125623Y73452D01*
X125885Y72819D01*
X115459Y62393D01*
X110989D01*
X110837Y62893D01*
X111020Y63015D01*
X122520Y74515D01*
X122822Y74967D01*
X122928Y75500D01*
Y85923D01*
X127473Y90467D01*
X132685D01*
X133023Y90535D01*
X133309Y90726D01*
X133501Y91013D01*
X133568Y91350D01*
Y97650D01*
X133501Y97988D01*
X133309Y98274D01*
X133023Y98466D01*
X132685Y98533D01*
D02*
G37*
G36*
X99589Y30537D02*
X97030Y27978D01*
X97496Y27619D01*
X98506Y27201D01*
X99589Y27059D01*
X100672Y27201D01*
X101682Y27619D01*
X102148Y27978D01*
X99589Y30537D01*
D02*
G37*
G36*
X50035Y11620D02*
X49452Y11543D01*
X48443Y11125D01*
X47576Y10459D01*
X46911Y9593D01*
X46493Y8583D01*
X46416Y8000D01*
X50035D01*
Y11620D01*
D02*
G37*
G36*
X120035Y11669D02*
X117386D01*
X116996Y11592D01*
X116665Y11371D01*
X116444Y11040D01*
X116366Y10650D01*
Y8000D01*
X120035D01*
Y11669D01*
D02*
G37*
G36*
X123685D02*
X121035D01*
Y8000D01*
X124705D01*
Y10650D01*
X124627Y11040D01*
X124406Y11371D01*
X124075Y11592D01*
X123685Y11669D01*
D02*
G37*
G36*
X51035Y11620D02*
Y8000D01*
X54655D01*
X54578Y8583D01*
X54160Y9593D01*
X53495Y10459D01*
X52628Y11125D01*
X51619Y11543D01*
X51035Y11620D01*
D02*
G37*
%LPD*%
D28*
X94535Y53500D02*
X119760D01*
X123535Y64500D02*
X129535D01*
X117035Y58000D02*
X123535Y64500D01*
X98535Y58000D02*
X117035D01*
X119760Y53500D02*
X120802Y52457D01*
X94535Y61000D02*
X116035D01*
X94035Y60500D02*
X94535Y61000D01*
X121535Y86500D02*
X129535Y94500D01*
X121535Y75500D02*
Y86500D01*
X110035Y64000D02*
X121535Y75500D01*
X93035Y64000D02*
X110035D01*
X116035Y61000D02*
X129535Y74500D01*
X98035Y57500D02*
X98535Y58000D01*
X113149Y45386D02*
X113731D01*
X60535Y7500D02*
Y10500D01*
X65535Y15500D01*
X108035Y50500D02*
X113149Y45386D01*
X94035Y50500D02*
X108035D01*
X99819Y47717D02*
X99921Y47819D01*
X100354D01*
X100535Y37000D02*
Y47000D01*
X65179Y60999D02*
X72003Y67823D01*
Y70532D01*
X100535Y37000D02*
X106535Y31000D01*
X65535Y15500D02*
X102535D01*
X106535Y19500D01*
Y31000D01*
X99819Y47717D02*
X100535Y47000D01*
D29*
X86535Y30500D02*
X97535Y41500D01*
Y44000D01*
X68035Y30500D02*
X86535D01*
X96805Y44000D02*
X97535D01*
X90701Y50104D02*
X96805Y44000D01*
X90701Y50104D02*
Y59826D01*
X89535Y60991D02*
X90701Y59826D01*
X89535Y60991D02*
Y64500D01*
X83535Y70500D02*
X89535Y64500D01*
X86535Y30500D02*
X87535D01*
X94535Y23500D01*
D32*
X106660Y38315D02*
X107220D01*
X110599Y34936D01*
X110535Y15789D02*
X110599Y15853D01*
X110535Y7500D02*
Y15789D01*
X110599Y15853D02*
Y34936D01*
D33*
X129535Y74500D02*
D03*
Y84500D02*
D03*
Y64500D02*
D03*
X106660Y38315D02*
D03*
X113731Y45386D02*
D03*
X99589Y31244D02*
D03*
X60535Y7500D02*
D03*
X80535D02*
D03*
X100535D02*
D03*
X110535D02*
D03*
X90535D02*
D03*
X70535D02*
D03*
X50535D02*
D03*
D34*
X129535Y94500D02*
D03*
D35*
X120802Y52457D02*
D03*
D36*
X120535Y7500D02*
D03*
D37*
X90035Y41000D02*
D03*
X64035Y37500D02*
D03*
X80035Y77999D02*
D03*
X75035Y78000D02*
D03*
X83535Y70500D02*
D03*
X68035Y30500D02*
D03*
X97535Y44000D02*
D03*
X94535Y53500D02*
D03*
X94035Y60500D02*
D03*
X93035Y64000D02*
D03*
X98035Y57500D02*
D03*
X94035Y50500D02*
D03*
X100354Y47819D02*
D03*
X62535Y27000D02*
D03*
X94535Y23500D02*
D03*
X72003Y70532D02*
D03*
X65179Y60999D02*
D03*
X61035Y68000D02*
D03*
X76035Y46339D02*
D03*
X71705Y55000D02*
D03*
X76035D02*
D03*
X80366D02*
D03*
X71705Y50669D02*
D03*
X76035D02*
D03*
X80366D02*
D03*
X71705Y46339D02*
D03*
X80366D02*
D03*
X15245Y5216D02*
D03*
Y60334D02*
D03*
X17213Y64271D02*
D03*
X19182Y5216D02*
D03*
Y60334D02*
D03*
X21150Y64271D02*
D03*
X23119Y5216D02*
D03*
Y60334D02*
D03*
X25087Y64271D02*
D03*
X23119Y68208D02*
D03*
X25087Y72145D02*
D03*
X27056Y5216D02*
D03*
Y60334D02*
D03*
X29024Y64271D02*
D03*
X27056Y68208D02*
D03*
X29024Y72145D02*
D03*
X30993Y5216D02*
D03*
X32961Y64271D02*
D03*
X30993Y68208D02*
D03*
X32961Y72145D02*
D03*
X30993Y76082D02*
D03*
X32961Y80019D02*
D03*
X34930Y5216D02*
D03*
X36898Y9153D02*
D03*
Y17027D02*
D03*
Y24901D02*
D03*
Y32775D02*
D03*
Y40649D02*
D03*
Y48523D02*
D03*
Y64271D02*
D03*
X34930Y68208D02*
D03*
X36898Y72145D02*
D03*
X34930Y76082D02*
D03*
X36898Y80019D02*
D03*
X38867Y5216D02*
D03*
X40835Y9153D02*
D03*
X38867Y13090D02*
D03*
X40835Y17027D02*
D03*
X38867Y20964D02*
D03*
X40835Y24901D02*
D03*
X38867Y28838D02*
D03*
X40835Y32775D02*
D03*
X38867Y36712D02*
D03*
X40835Y40649D02*
D03*
X38867Y44586D02*
D03*
X40835Y48523D02*
D03*
X38867Y60334D02*
D03*
X40835Y64271D02*
D03*
X38867Y68208D02*
D03*
X40835Y72145D02*
D03*
X38867Y76082D02*
D03*
X40835Y80019D02*
D03*
X42804Y5216D02*
D03*
X44772Y9153D02*
D03*
X42804Y13090D02*
D03*
X44772Y17027D02*
D03*
X42804Y20964D02*
D03*
Y28838D02*
D03*
Y36712D02*
D03*
Y44586D02*
D03*
X44772Y48523D02*
D03*
X42804Y60334D02*
D03*
X44772Y64271D02*
D03*
X42804Y68208D02*
D03*
X44772Y72145D02*
D03*
X42804Y76082D02*
D03*
X44772Y80019D02*
D03*
X46741Y13090D02*
D03*
X48709Y17027D02*
D03*
X46741Y20964D02*
D03*
X48709Y48523D02*
D03*
X46741Y60334D02*
D03*
X48709Y64271D02*
D03*
X50678Y13090D02*
D03*
X52646Y17027D02*
D03*
X50678Y20964D02*
D03*
X52646Y24901D02*
D03*
Y32775D02*
D03*
Y40649D02*
D03*
Y48523D02*
D03*
X50678Y52460D02*
D03*
X54615Y13090D02*
D03*
X56583Y17027D02*
D03*
X54615Y20964D02*
D03*
X58552Y13090D02*
D03*
X60520Y17027D02*
D03*
X58552Y20964D02*
D03*
X62489D02*
D03*
X64457Y24901D02*
D03*
Y40649D02*
D03*
Y80019D02*
D03*
X66426Y20964D02*
D03*
X68394Y24901D02*
D03*
X70363Y13090D02*
D03*
Y36712D02*
D03*
X84142Y80019D02*
D03*
X88079Y24901D02*
D03*
X86111Y36712D02*
D03*
Y76082D02*
D03*
X88079Y80019D02*
D03*
X90048Y13090D02*
D03*
Y20964D02*
D03*
X93985Y28838D02*
D03*
X95953Y80019D02*
D03*
X97922Y13090D02*
D03*
X99890Y24901D02*
D03*
X97922Y36712D02*
D03*
X101859Y13090D02*
D03*
X103827Y24901D02*
D03*
Y80019D02*
D03*
X105796Y5216D02*
D03*
Y13090D02*
D03*
Y44586D02*
D03*
X107764Y80019D02*
D03*
X111701Y40649D02*
D03*
X109733Y68208D02*
D03*
X111701Y80019D02*
D03*
X113670Y13090D02*
D03*
X115638Y17027D02*
D03*
Y24901D02*
D03*
Y32775D02*
D03*
Y40649D02*
D03*
Y64271D02*
D03*
Y80019D02*
D03*
X113670Y83956D02*
D03*
X115638Y87893D02*
D03*
X117607Y13090D02*
D03*
X119575Y17027D02*
D03*
Y24901D02*
D03*
X117607Y28838D02*
D03*
X119575Y40649D02*
D03*
X117607Y83956D02*
D03*
X119575Y87893D02*
D03*
X121544Y13090D02*
D03*
X123512Y17027D02*
D03*
Y24901D02*
D03*
Y40649D02*
D03*
X121544Y44586D02*
D03*
X123512Y72145D02*
D03*
X121544Y91830D02*
D03*
X123512Y95767D02*
D03*
X127449Y9153D02*
D03*
X125481Y13090D02*
D03*
X127449Y17027D02*
D03*
Y32775D02*
D03*
X125481Y36712D02*
D03*
X127449Y40649D02*
D03*
X125481Y44586D02*
D03*
X127449Y48523D02*
D03*
Y56397D02*
D03*
X125481Y60334D02*
D03*
X129418Y13090D02*
D03*
X131386Y17027D02*
D03*
Y32775D02*
D03*
X129418Y36712D02*
D03*
X131386Y40649D02*
D03*
X129418Y44586D02*
D03*
X131386Y48523D02*
D03*
X129418Y52460D02*
D03*
X131386Y56397D02*
D03*
X133355Y13090D02*
D03*
X135324Y17027D02*
D03*
X133355Y36712D02*
D03*
X135324Y40649D02*
D03*
X133355Y44586D02*
D03*
X135324Y48523D02*
D03*
X133355Y52460D02*
D03*
X135324Y56397D02*
D03*
X133355Y60334D02*
D03*
X135324Y64271D02*
D03*
X133355Y68208D02*
D03*
X135324Y72145D02*
D03*
Y80019D02*
D03*
Y87893D02*
D03*
Y95767D02*
D03*
X137292Y28838D02*
D03*
X139260Y40649D02*
D03*
X137292Y44586D02*
D03*
X139260Y48523D02*
D03*
X137292Y52460D02*
D03*
X139260Y56397D02*
D03*
X137292Y60334D02*
D03*
X139260Y64271D02*
D03*
X137292Y68208D02*
D03*
X139260Y72145D02*
D03*
X137292Y76082D02*
D03*
X139260Y80019D02*
D03*
X137292Y83956D02*
D03*
X139260Y87893D02*
D03*
X137292Y91830D02*
D03*
X141229Y20964D02*
D03*
X143198Y24901D02*
D03*
Y40649D02*
D03*
X141229Y44586D02*
D03*
X143198Y48523D02*
D03*
X141229Y52460D02*
D03*
X143198Y56397D02*
D03*
X141229Y60334D02*
D03*
X143198Y64271D02*
D03*
X141229Y68208D02*
D03*
X143198Y72145D02*
D03*
X141229Y76082D02*
D03*
X143198Y80019D02*
D03*
X141229Y83956D02*
D03*
X143198Y87893D02*
D03*
X145166Y36712D02*
D03*
X147134Y40649D02*
D03*
X145166Y44586D02*
D03*
X147134Y48523D02*
D03*
X145166Y52460D02*
D03*
X147134Y56397D02*
D03*
X145166Y60334D02*
D03*
X147134Y64271D02*
D03*
X145166Y68208D02*
D03*
X147134Y72145D02*
D03*
X145166Y76082D02*
D03*
X147134Y80019D02*
D03*
X145166Y83956D02*
D03*
X149103Y28838D02*
D03*
X151072Y32775D02*
D03*
X149103Y36712D02*
D03*
X151072Y40649D02*
D03*
X149103Y44586D02*
D03*
X151072Y48523D02*
D03*
X149103Y52460D02*
D03*
X151072Y56397D02*
D03*
X149103Y60334D02*
D03*
X151072Y64271D02*
D03*
X149103Y68208D02*
D03*
X151072Y72145D02*
D03*
X149103Y76082D02*
D03*
X151072Y80019D02*
D03*
X153040Y36712D02*
D03*
X155008Y40649D02*
D03*
X153040Y44586D02*
D03*
X155008Y48523D02*
D03*
X153040Y52460D02*
D03*
X155008Y56397D02*
D03*
X153040Y60334D02*
D03*
X155008Y64271D02*
D03*
X153040Y68208D02*
D03*
X155008Y72145D02*
D03*
X153040Y76082D02*
D03*
X156977Y36712D02*
D03*
X158946Y40649D02*
D03*
X156977Y44586D02*
D03*
X158946Y48523D02*
D03*
X156977Y52460D02*
D03*
X158946Y56397D02*
D03*
X156977Y60334D02*
D03*
X158946Y64271D02*
D03*
X156977Y68208D02*
D03*
X158946Y72145D02*
D03*
X33430Y50716D02*
D03*
X29493D02*
D03*
X25556D02*
D03*
X21619D02*
D03*
X17682D02*
D03*
X13745D02*
D03*
D38*
X120802Y52457D02*
D03*
M02*
