M48
;Layer_Color=9474304
;FILE_FORMAT=2:5
INCH,LZ
;TYPE=PLATED
T1F00S00C0.01200
T2F00S00C0.04331
%
T01
X0011Y0005743
X00145
X0018
X00215
X0025
X00285
X0032
X00355
X0039
X00425
X004425Y0009243
X004075
X00425Y0012743
X0046
X00495
X0053
X00565
X005825Y0016243
X005475
X005125
X004775
X004425
X004075
X00425Y0019743
X0046
X00495
X0053
X00565
X006
X005825Y0023243
X005475
X005125
X004775
X004425
X004075
X0039Y0026743
X004075Y0030243
X0039Y0033743
Y0040743
Y0047743
X0041535Y005
X004425Y0051243
X004775
X004425Y0058243
X0046Y0061743
X00495
X004775Y0065243
X004425
X00425Y0061743
X0039
X003725Y0051243
X003375
X003025
X002675
X002325
X001975
X001625
X001275
Y0058243
X001625
X001975
X002325
X0025Y0061743
X00215
X0018
X00145
X001625Y0065243
X001975
X002325
X000925Y0058243
X00495Y0040743
Y0033743
X004775Y0030243
X00495Y0026743
X0059535Y0027
X005825Y0030243
Y0037243
X006Y0040743
X005825Y0044243
X0039Y0019743
Y0012743
X006175Y0016243
X00635Y0019743
X006175Y0023243
X0065035Y00305
X0062535Y004
X0068705Y0046339
X0073035
Y0050669
Y0055
X0068705
Y0050669
X0077366
Y0055
Y0046339
X0087035Y0041
X0097535Y0044
X0100354Y0047819
X00965Y00505
X0094535Y00535
X0094035Y00605
X0098035Y00575
X0090035Y0064
X00625Y0061
X0067Y0012743
X00775
X007575Y0009243
X0091Y00195
X00875Y0024
X0095Y0026743
Y0033743
X01035Y0021
X010725Y0016243
X01055Y0012743
X0102
X00985
X01055Y0005743
X0116Y0012743
X01195
X0123
X01265
X013
X01335
X013525Y0016243
X013175
X012825
X012475
X012125
X011775
X011425
X0116Y0026743
X01195
X0123
X012825Y0030243
X013175
X013525
X01335Y0033743
X013
X01265
X012825Y0037243
X013175
X013525
X013875
X01405Y0040743
X0144
X01475
X0151
X01545
X0158
X015975Y0044243
X015625
X015275
X014925
X014575
X014225
X013875
X013525
X013175
X012825
X012475
X012125
X0123Y0040743
X01265
X013
X01335
X0137
Y0047743
X01405
X0144
X01475
X0151
X01545
X0158
X015975Y0051243
X015625
X015275
X014925
X014575
X014225
X013875
X013525
X013175
X012825
X013Y0054743
X01335
X0137
X01405
X0144
X01475
X0151
X01545
X0158
X015975Y0058243
X015625
X015275
X014925
X014575
X014225
X013875
X013525
X013175
X012825
X012475
X01265Y0054743
Y0047743
X013
X01335
X0137Y0061743
X01405
X0144
X01475
X0151
X01545
X0158
X015975Y0065243
X015625
X015275
X014925
X014575
X014225
X013875
X013525
X014575Y0037243
X014925
X015275
X015625
X01545Y0033743
X0151
X014925Y0030243
X014575
X01475Y0026743
X0144
X01405
X014225Y0023243
X013875
X01405Y0019743
X0137
X012825Y0009243
X01265Y0005743
X012475Y0037243
X01195Y0040743
X0116
X011775Y0030243
X011425
X010725Y0044243
X01195Y0068743
X0123
X01265
X01335
X0137
X01405
X0144
X01475
X0151
X01545
X0158
X015975Y0072243
X015625
X015275
X014925
X014575
X014225
X013875
X013525
X0137Y0075743
X01405
X0144
X01475
X0151
X01545
X015275Y0079243
X014925
X01475Y0082743
X014575Y0086243
X013875
X013525
X0137Y0089743
X01405
X013875Y0093243
X013525
Y0079243
X013175
X012475
X012125
X011775
Y0086243
X011425
X01125Y0082743
X011075Y0079243
X0123Y0082743
X012475Y0086243
X01195Y0089743
X012125Y0093243
X008625Y0072243
X0080535Y00705
X007925Y0079243
X0077035Y0077999
X0072035Y0078
X006875Y0079243
X0071Y0069497
X0065035Y0069
X00495Y0068743
X0046
X004775Y0072243
X004425
X0046Y0075743
X004775Y0079243
X004425
X004075
X003725
X003375Y0072243
X0032Y0068743
X00215
T02
X0050535Y00075
X0060535
X0070535
X0080535
X0090535
X0100535
X0110535
X0120535
X010666Y0038315
X0113731Y0045386
X0120802Y0052457
X0115Y00645
X0129535
X0099589Y0031244
X00845Y00785
X0129535Y00745
Y00845
Y00945
X0142Y00815
M30
