G04 Layer_Color=8421504*
%FSLAX25Y25*%
%MOIN*%
G70*
G01*
G75*
G04:AMPARAMS|DCode=10|XSize=35.43mil|YSize=35.43mil|CornerRadius=8.86mil|HoleSize=0mil|Usage=FLASHONLY|Rotation=270.000|XOffset=0mil|YOffset=0mil|HoleType=Round|Shape=RoundedRectangle|*
%AMROUNDEDRECTD10*
21,1,0.03543,0.01772,0,0,270.0*
21,1,0.01772,0.03543,0,0,270.0*
1,1,0.01772,-0.00886,-0.00886*
1,1,0.01772,-0.00886,0.00886*
1,1,0.01772,0.00886,0.00886*
1,1,0.01772,0.00886,-0.00886*
%
%ADD10ROUNDEDRECTD10*%
%ADD11R,0.08268X0.04331*%
G04:AMPARAMS|DCode=12|XSize=23.62mil|YSize=27.56mil|CornerRadius=5.91mil|HoleSize=0mil|Usage=FLASHONLY|Rotation=180.000|XOffset=0mil|YOffset=0mil|HoleType=Round|Shape=RoundedRectangle|*
%AMROUNDEDRECTD12*
21,1,0.02362,0.01575,0,0,180.0*
21,1,0.01181,0.02756,0,0,180.0*
1,1,0.01181,-0.00591,0.00787*
1,1,0.01181,0.00591,0.00787*
1,1,0.01181,0.00591,-0.00787*
1,1,0.01181,-0.00591,-0.00787*
%
%ADD12ROUNDEDRECTD12*%
G04:AMPARAMS|DCode=13|XSize=23.62mil|YSize=27.56mil|CornerRadius=5.91mil|HoleSize=0mil|Usage=FLASHONLY|Rotation=270.000|XOffset=0mil|YOffset=0mil|HoleType=Round|Shape=RoundedRectangle|*
%AMROUNDEDRECTD13*
21,1,0.02362,0.01575,0,0,270.0*
21,1,0.01181,0.02756,0,0,270.0*
1,1,0.01181,-0.00787,-0.00591*
1,1,0.01181,-0.00787,0.00591*
1,1,0.01181,0.00787,0.00591*
1,1,0.01181,0.00787,-0.00591*
%
%ADD13ROUNDEDRECTD13*%
%ADD14R,0.00984X0.01575*%
%ADD15R,0.01181X0.01575*%
%ADD16R,0.04134X0.08661*%
%ADD17R,0.04134X0.03937*%
%ADD18R,0.03543X0.03543*%
G04:AMPARAMS|DCode=19|XSize=35.43mil|YSize=35.43mil|CornerRadius=8.86mil|HoleSize=0mil|Usage=FLASHONLY|Rotation=180.000|XOffset=0mil|YOffset=0mil|HoleType=Round|Shape=RoundedRectangle|*
%AMROUNDEDRECTD19*
21,1,0.03543,0.01772,0,0,180.0*
21,1,0.01772,0.03543,0,0,180.0*
1,1,0.01772,-0.00886,0.00886*
1,1,0.01772,0.00886,0.00886*
1,1,0.01772,0.00886,-0.00886*
1,1,0.01772,-0.00886,-0.00886*
%
%ADD19ROUNDEDRECTD19*%
%ADD20R,0.05512X0.04528*%
%ADD21R,0.03937X0.06693*%
%ADD22R,0.03347X0.01968*%
%ADD23P,0.05011X4X360.0*%
%ADD24R,0.03937X0.00984*%
%ADD25O,0.03937X0.00984*%
%ADD26O,0.00984X0.03937*%
%ADD27R,0.13583X0.13583*%
%ADD28R,0.02756X0.01969*%
G04:AMPARAMS|DCode=29|XSize=63mil|YSize=56mil|CornerRadius=0mil|HoleSize=0mil|Usage=FLASHONLY|Rotation=225.000|XOffset=0mil|YOffset=0mil|HoleType=Round|Shape=Rectangle|*
%AMROTATEDRECTD29*
4,1,4,0.00248,0.04207,0.04207,0.00248,-0.00248,-0.04207,-0.04207,-0.00248,0.00248,0.04207,0.0*
%
%ADD29ROTATEDRECTD29*%

D10*
X6500Y6851D02*
D03*
Y13150D02*
D03*
X69000Y20851D02*
D03*
Y27150D02*
D03*
X54000Y27851D02*
D03*
Y34150D02*
D03*
X110535Y27149D02*
D03*
X110535Y20850D02*
D03*
X44000Y27351D02*
D03*
X44000Y33650D02*
D03*
X91000Y28350D02*
D03*
X91000Y34649D02*
D03*
D11*
X6500Y21815D02*
D03*
Y31657D02*
D03*
Y41500D02*
D03*
D12*
X29968Y54999D02*
D03*
X26031D02*
D03*
X53531Y62499D02*
D03*
X57468D02*
D03*
X61066Y33999D02*
D03*
X65003D02*
D03*
X107469Y62001D02*
D03*
X103532D02*
D03*
D13*
X30501Y58968D02*
D03*
Y55031D02*
D03*
X91501Y39531D02*
D03*
Y43468D02*
D03*
X77035Y74469D02*
D03*
Y70532D02*
D03*
X72035Y74469D02*
D03*
Y70532D02*
D03*
D14*
X50000Y55024D02*
D03*
Y57976D02*
D03*
D15*
X52067Y55024D02*
D03*
X47933D02*
D03*
Y57976D02*
D03*
X52067D02*
D03*
D16*
X38807Y70505D02*
D03*
X27193D02*
D03*
D17*
X33000Y76508D02*
D03*
Y64500D02*
D03*
D18*
X84500Y28351D02*
D03*
Y34650D02*
D03*
D19*
X98685Y70000D02*
D03*
X92386Y70000D02*
D03*
X98685Y77000D02*
D03*
X92386Y77000D02*
D03*
X108685Y55500D02*
D03*
X102386D02*
D03*
X41685Y55000D02*
D03*
X35386D02*
D03*
D20*
X54169Y78543D02*
D03*
Y71457D02*
D03*
X62831D02*
D03*
Y78543D02*
D03*
D21*
X44079Y41500D02*
D03*
X53921D02*
D03*
D22*
X115480Y75968D02*
D03*
Y72031D02*
D03*
X108591Y72031D02*
D03*
Y75968D02*
D03*
D23*
X123263Y31273D02*
D03*
X118808Y35727D02*
D03*
D24*
X62996Y57559D02*
D03*
D25*
Y55590D02*
D03*
Y53622D02*
D03*
Y51653D02*
D03*
Y49685D02*
D03*
Y47717D02*
D03*
Y45748D02*
D03*
Y43780D02*
D03*
X83075D02*
D03*
Y45748D02*
D03*
Y47717D02*
D03*
Y49685D02*
D03*
Y51653D02*
D03*
Y53622D02*
D03*
Y55590D02*
D03*
Y57559D02*
D03*
D26*
X66146Y40630D02*
D03*
X68114D02*
D03*
X70083D02*
D03*
X72051D02*
D03*
X74020D02*
D03*
X75988D02*
D03*
X77957D02*
D03*
X79925D02*
D03*
Y60709D02*
D03*
X77957D02*
D03*
X75988D02*
D03*
X72051D02*
D03*
X70083D02*
D03*
X68114D02*
D03*
X66146D02*
D03*
X74020D02*
D03*
D27*
X73035Y50669D02*
D03*
D28*
X116673Y21000D02*
D03*
X121791D02*
D03*
D29*
X141535Y33081D02*
D03*
X133116Y24662D02*
D03*
M02*
