G04 Layer_Color=16711935*
%FSLAX25Y25*%
%MOIN*%
G70*
G01*
G75*
%ADD70C,0.07099*%
%ADD71R,0.07099X0.07099*%
%ADD72P,0.10040X4X270.0*%
%ADD73R,0.07099X0.07099*%
%ADD74C,0.02800*%
D70*
X129535Y74500D02*
D03*
Y84500D02*
D03*
Y64500D02*
D03*
X106660Y38315D02*
D03*
X113731Y45386D02*
D03*
X99589Y31244D02*
D03*
X60535Y7500D02*
D03*
X80535D02*
D03*
X100535D02*
D03*
X110535D02*
D03*
X90535D02*
D03*
X70535D02*
D03*
X50535D02*
D03*
D71*
X129535Y94500D02*
D03*
D72*
X120802Y52457D02*
D03*
D73*
X120535Y7500D02*
D03*
D74*
X87500Y24000D02*
D03*
X71000Y69497D02*
D03*
X62500Y61000D02*
D03*
X103500Y21000D02*
D03*
X96500Y50500D02*
D03*
X91000Y19500D02*
D03*
X58535Y45500D02*
D03*
X62535Y40000D02*
D03*
X65035Y30500D02*
D03*
X59535Y27000D02*
D03*
X87035Y41000D02*
D03*
X77035Y77999D02*
D03*
X72035Y78000D02*
D03*
X80535Y70500D02*
D03*
X97535Y44000D02*
D03*
X94535Y53500D02*
D03*
X94035Y60500D02*
D03*
X90035Y64000D02*
D03*
X98035Y57500D02*
D03*
X100354Y47819D02*
D03*
X73035Y46339D02*
D03*
X68705Y55000D02*
D03*
X73035D02*
D03*
X77366D02*
D03*
X68705Y50669D02*
D03*
X73035D02*
D03*
X77366D02*
D03*
X68705Y46339D02*
D03*
X77366D02*
D03*
M02*
