G04 Layer_Physical_Order=1*
G04 Layer_Color=255*
%FSLAX25Y25*%
%MOIN*%
G70*
G01*
G75*
%ADD10R,0.08661X0.04134*%
%ADD11R,0.03937X0.04134*%
G04:AMPARAMS|DCode=12|XSize=35.43mil|YSize=35.43mil|CornerRadius=8.86mil|HoleSize=0mil|Usage=FLASHONLY|Rotation=90.000|XOffset=0mil|YOffset=0mil|HoleType=Round|Shape=RoundedRectangle|*
%AMROUNDEDRECTD12*
21,1,0.03543,0.01772,0,0,90.0*
21,1,0.01772,0.03543,0,0,90.0*
1,1,0.01772,0.00886,0.00886*
1,1,0.01772,0.00886,-0.00886*
1,1,0.01772,-0.00886,-0.00886*
1,1,0.01772,-0.00886,0.00886*
%
%ADD12ROUNDEDRECTD12*%
%ADD13R,0.03543X0.03543*%
G04:AMPARAMS|DCode=14|XSize=35.43mil|YSize=35.43mil|CornerRadius=8.86mil|HoleSize=0mil|Usage=FLASHONLY|Rotation=180.000|XOffset=0mil|YOffset=0mil|HoleType=Round|Shape=RoundedRectangle|*
%AMROUNDEDRECTD14*
21,1,0.03543,0.01772,0,0,180.0*
21,1,0.01772,0.03543,0,0,180.0*
1,1,0.01772,-0.00886,0.00886*
1,1,0.01772,0.00886,0.00886*
1,1,0.01772,0.00886,-0.00886*
1,1,0.01772,-0.00886,-0.00886*
%
%ADD14ROUNDEDRECTD14*%
%ADD15R,0.00984X0.01378*%
%ADD16R,0.01181X0.01378*%
%ADD17R,0.05512X0.04528*%
G04:AMPARAMS|DCode=18|XSize=66.93mil|YSize=39.37mil|CornerRadius=0mil|HoleSize=0mil|Usage=FLASHONLY|Rotation=225.000|XOffset=0mil|YOffset=0mil|HoleType=Round|Shape=Rectangle|*
%AMROTATEDRECTD18*
4,1,4,0.00974,0.03758,0.03758,0.00974,-0.00974,-0.03758,-0.03758,-0.00974,0.00974,0.03758,0.0*
%
%ADD18ROTATEDRECTD18*%

%ADD19R,0.03347X0.01968*%
G04:AMPARAMS|DCode=20|XSize=35.43mil|YSize=35.43mil|CornerRadius=8.86mil|HoleSize=0mil|Usage=FLASHONLY|Rotation=225.000|XOffset=0mil|YOffset=0mil|HoleType=Round|Shape=RoundedRectangle|*
%AMROUNDEDRECTD20*
21,1,0.03543,0.01772,0,0,225.0*
21,1,0.01772,0.03543,0,0,225.0*
1,1,0.01772,-0.01253,0.00000*
1,1,0.01772,0.00000,0.01253*
1,1,0.01772,0.01253,0.00000*
1,1,0.01772,0.00000,-0.01253*
%
%ADD20ROUNDEDRECTD20*%
G04:AMPARAMS|DCode=21|XSize=23.62mil|YSize=27.56mil|CornerRadius=5.91mil|HoleSize=0mil|Usage=FLASHONLY|Rotation=180.000|XOffset=0mil|YOffset=0mil|HoleType=Round|Shape=RoundedRectangle|*
%AMROUNDEDRECTD21*
21,1,0.02362,0.01575,0,0,180.0*
21,1,0.01181,0.02756,0,0,180.0*
1,1,0.01181,-0.00591,0.00787*
1,1,0.01181,0.00591,0.00787*
1,1,0.01181,0.00591,-0.00787*
1,1,0.01181,-0.00591,-0.00787*
%
%ADD21ROUNDEDRECTD21*%
G04:AMPARAMS|DCode=22|XSize=23.62mil|YSize=27.56mil|CornerRadius=5.91mil|HoleSize=0mil|Usage=FLASHONLY|Rotation=270.000|XOffset=0mil|YOffset=0mil|HoleType=Round|Shape=RoundedRectangle|*
%AMROUNDEDRECTD22*
21,1,0.02362,0.01575,0,0,270.0*
21,1,0.01181,0.02756,0,0,270.0*
1,1,0.01181,-0.00787,-0.00591*
1,1,0.01181,-0.00787,0.00591*
1,1,0.01181,0.00787,0.00591*
1,1,0.01181,0.00787,-0.00591*
%
%ADD22ROUNDEDRECTD22*%
%ADD23P,0.05011X4X360.0*%
%ADD24R,0.03937X0.00984*%
%ADD25O,0.03937X0.00984*%
%ADD26O,0.00984X0.03937*%
%ADD27R,0.13583X0.13583*%
%ADD28R,0.02756X0.01969*%
G04:AMPARAMS|DCode=29|XSize=63mil|YSize=95mil|CornerRadius=0mil|HoleSize=0mil|Usage=FLASHONLY|Rotation=225.000|XOffset=0mil|YOffset=0mil|HoleType=Round|Shape=Rectangle|*
%AMROTATEDRECTD29*
4,1,4,-0.01131,0.05586,0.05586,-0.01131,0.01131,-0.05586,-0.05586,0.01131,-0.01131,0.05586,0.0*
%
%ADD29ROTATEDRECTD29*%

%ADD30C,0.03000*%
%ADD31C,0.01000*%
%ADD32C,0.01200*%
%ADD33C,0.01600*%
%ADD34C,0.01575*%
%ADD35C,0.01181*%
%ADD36C,0.01968*%
%ADD37C,0.06299*%
%ADD38R,0.06299X0.06299*%
%ADD39P,0.08908X4X270.0*%
%ADD40R,0.06299X0.06299*%
%ADD41C,0.02000*%
G36*
X161643Y72423D02*
Y39077D01*
X123959Y1393D01*
X44077D01*
X14393Y31077D01*
Y51933D01*
X14576Y52056D01*
X14893Y52154D01*
X15137Y51991D01*
X15528Y51913D01*
X16996D01*
Y55000D01*
Y58087D01*
X15528D01*
X15137Y58009D01*
X14893Y57846D01*
X14576Y57944D01*
X14393Y58067D01*
Y64388D01*
X33612Y83607D01*
X108535D01*
X109069Y83713D01*
X109520Y84015D01*
X125112Y99607D01*
X134458D01*
X161643Y72423D01*
D02*
G37*
%LPC*%
G36*
X30773Y30566D02*
X29141Y28933D01*
X29414Y28661D01*
X30037Y28244D01*
X30773Y28097D01*
X31509Y28244D01*
X32133Y28661D01*
X32406Y28933D01*
X30773Y30566D01*
D02*
G37*
G36*
X96323Y33804D02*
X95964Y33337D01*
X95546Y32327D01*
X95404Y31244D01*
X95546Y30161D01*
X95964Y29151D01*
X96323Y28685D01*
X98882Y31244D01*
X96323Y33804D01*
D02*
G37*
G36*
X102856Y33804D02*
X100296Y31244D01*
X102856Y28685D01*
X103214Y29151D01*
X103632Y30161D01*
X103774Y31244D01*
X103632Y32327D01*
X103214Y33337D01*
X102856Y33804D01*
D02*
G37*
G36*
X99589Y30537D02*
X97030Y27978D01*
X97496Y27619D01*
X98506Y27201D01*
X99589Y27059D01*
X100672Y27201D01*
X101682Y27619D01*
X102148Y27978D01*
X99589Y30537D01*
D02*
G37*
G36*
X141535Y32374D02*
X138940Y29779D01*
X141945Y26774D01*
X142276Y26553D01*
X142666Y26475D01*
X143056Y26553D01*
X143387Y26774D01*
X145261Y28648D01*
X141535Y32374D01*
D02*
G37*
G36*
X111421Y29958D02*
X111035D01*
Y27649D01*
X113344D01*
Y28035D01*
X113197Y28771D01*
X112781Y29395D01*
X112157Y29812D01*
X111421Y29958D01*
D02*
G37*
G36*
X110035D02*
X109649D01*
X108914Y29812D01*
X108290Y29395D01*
X107873Y28771D01*
X107727Y28035D01*
Y27649D01*
X110035D01*
Y29958D01*
D02*
G37*
G36*
X144836Y35676D02*
X142242Y33081D01*
X145968Y29355D01*
X147842Y31229D01*
X148063Y31559D01*
X148140Y31949D01*
X148063Y32340D01*
X147842Y32670D01*
X144836Y35676D01*
D02*
G37*
G36*
X140403Y39687D02*
X140013Y39609D01*
X139682Y39388D01*
X137809Y37514D01*
X141535Y33788D01*
X144129Y36383D01*
X141124Y39388D01*
X140793Y39609D01*
X140403Y39687D01*
D02*
G37*
G36*
X60566Y36408D02*
X60476D01*
X59855Y36285D01*
X59329Y35933D01*
X58977Y35407D01*
X58854Y34787D01*
Y34499D01*
X60566D01*
Y36408D01*
D02*
G37*
G36*
X93910Y39031D02*
X91501D01*
X89092D01*
Y38940D01*
X89215Y38320D01*
X89528Y37851D01*
X89438Y37324D01*
X89378Y37312D01*
X88754Y36895D01*
X88337Y36271D01*
X88191Y35535D01*
Y35149D01*
X91000D01*
X93808D01*
Y35535D01*
X93662Y36271D01*
X93245Y36895D01*
X93083Y37003D01*
X93081Y37010D01*
X93118Y37582D01*
X93435Y37793D01*
X93786Y38320D01*
X93910Y38940D01*
Y39031D01*
D02*
G37*
G36*
X99589Y35430D02*
X98506Y35287D01*
X97496Y34869D01*
X97030Y34511D01*
X99589Y31951D01*
X102148Y34511D01*
X101682Y34869D01*
X100672Y35287D01*
X99589Y35430D01*
D02*
G37*
G36*
X28434Y32905D02*
X28161Y32632D01*
X27744Y32009D01*
X27598Y31273D01*
X27744Y30537D01*
X28161Y29913D01*
X28434Y29640D01*
X30066Y31273D01*
X28434Y32905D01*
D02*
G37*
G36*
X137101Y36807D02*
X135228Y34933D01*
X135006Y34602D01*
X134929Y34212D01*
X135006Y33822D01*
X135228Y33491D01*
X138233Y30486D01*
X140828Y33081D01*
X137101Y36807D01*
D02*
G37*
G36*
X60566Y33499D02*
X58854D01*
Y33212D01*
X58977Y32591D01*
X59329Y32065D01*
X59855Y31714D01*
X60476Y31590D01*
X60566D01*
Y33499D01*
D02*
G37*
G36*
X110535Y11550D02*
X109487Y11412D01*
X108510Y11008D01*
X107671Y10364D01*
X107028Y9525D01*
X106623Y8548D01*
X106485Y7500D01*
X106623Y6452D01*
X107028Y5475D01*
X107671Y4636D01*
X108510Y3992D01*
X109487Y3588D01*
X110535Y3450D01*
X111584Y3588D01*
X112561Y3992D01*
X113400Y4636D01*
X114043Y5475D01*
X114448Y6452D01*
X114586Y7500D01*
X114448Y8548D01*
X114043Y9525D01*
X113400Y10364D01*
X112561Y11008D01*
X111584Y11412D01*
X110535Y11550D01*
D02*
G37*
G36*
X60535D02*
X59487Y11412D01*
X58510Y11008D01*
X57671Y10364D01*
X57028Y9525D01*
X56623Y8548D01*
X56485Y7500D01*
X56623Y6452D01*
X57028Y5475D01*
X57671Y4636D01*
X58510Y3992D01*
X59487Y3588D01*
X60535Y3450D01*
X61584Y3588D01*
X62561Y3992D01*
X63399Y4636D01*
X64043Y5475D01*
X64448Y6452D01*
X64586Y7500D01*
X64448Y8548D01*
X64043Y9525D01*
X63399Y10364D01*
X62561Y11008D01*
X61584Y11412D01*
X60535Y11550D01*
D02*
G37*
G36*
X50035Y11620D02*
X49452Y11543D01*
X48443Y11125D01*
X47576Y10459D01*
X46911Y9593D01*
X46493Y8583D01*
X46416Y8000D01*
X50035D01*
Y11620D01*
D02*
G37*
G36*
X120035Y11669D02*
X117386D01*
X116996Y11592D01*
X116665Y11371D01*
X116444Y11040D01*
X116366Y10650D01*
Y8000D01*
X120035D01*
Y11669D01*
D02*
G37*
G36*
X124705Y7000D02*
X121035D01*
Y3331D01*
X123685D01*
X124075Y3408D01*
X124406Y3629D01*
X124627Y3960D01*
X124705Y4350D01*
Y7000D01*
D02*
G37*
G36*
X120035D02*
X116366D01*
Y4350D01*
X116444Y3960D01*
X116665Y3629D01*
X116996Y3408D01*
X117386Y3331D01*
X120035D01*
Y7000D01*
D02*
G37*
G36*
X54655D02*
X51035D01*
Y3380D01*
X51619Y3457D01*
X52628Y3875D01*
X53495Y4541D01*
X54160Y5407D01*
X54578Y6417D01*
X54655Y7000D01*
D02*
G37*
G36*
X50035D02*
X46416D01*
X46493Y6417D01*
X46911Y5407D01*
X47576Y4541D01*
X48443Y3875D01*
X49452Y3457D01*
X50035Y3380D01*
Y7000D01*
D02*
G37*
G36*
X35934Y24905D02*
X35661Y24632D01*
X35244Y24009D01*
X35098Y23273D01*
X35244Y22537D01*
X35661Y21913D01*
X35934Y21640D01*
X37566Y23273D01*
X35934Y24905D01*
D02*
G37*
G36*
X38273Y22566D02*
X36641Y20933D01*
X36914Y20661D01*
X37537Y20244D01*
X38273Y20097D01*
X39009Y20244D01*
X39633Y20661D01*
X39906Y20933D01*
X38273Y22566D01*
D02*
G37*
G36*
X106660Y42366D02*
X105612Y42228D01*
X104635Y41823D01*
X103796Y41179D01*
X103152Y40341D01*
X102748Y39364D01*
X102610Y38315D01*
X102748Y37267D01*
X103152Y36290D01*
X103796Y35451D01*
X104635Y34808D01*
X105612Y34403D01*
X106660Y34265D01*
X107708Y34403D01*
X108301Y34648D01*
X108475Y34613D01*
X108475Y34613D01*
X116168D01*
X118184Y32598D01*
X118470Y32406D01*
X118808Y32339D01*
X119146Y32406D01*
X119266Y32486D01*
X120021Y31730D01*
X119941Y31611D01*
X119874Y31273D01*
X119941Y30935D01*
X120133Y30649D01*
X122638Y28143D01*
X122925Y27952D01*
X123263Y27885D01*
X123601Y27952D01*
X123887Y28143D01*
X123948Y28204D01*
X126752Y25399D01*
X126906Y25169D01*
X126906Y25169D01*
X128983Y23092D01*
X128682Y22686D01*
X123679D01*
X123507Y22800D01*
X123169Y22868D01*
X120413D01*
X120076Y22800D01*
X119789Y22609D01*
X119598Y22322D01*
X119530Y21984D01*
Y20016D01*
X119598Y19678D01*
X119789Y19391D01*
X120076Y19200D01*
X120413Y19132D01*
X123169D01*
X123507Y19200D01*
X123679Y19314D01*
X129454D01*
X130099Y19442D01*
X130646Y19808D01*
X131456Y20618D01*
X133623Y18452D01*
X133909Y18260D01*
X134248Y18193D01*
X134585Y18260D01*
X134872Y18452D01*
X139327Y22907D01*
X139518Y23193D01*
X139585Y23531D01*
X139518Y23869D01*
X139327Y24156D01*
X139327Y24156D01*
X132609Y30873D01*
X132323Y31064D01*
X131985Y31132D01*
X131647Y31064D01*
X131360Y30873D01*
X128703Y28216D01*
X126332Y30588D01*
X126392Y30649D01*
X126584Y30935D01*
X126651Y31273D01*
X126584Y31611D01*
X126392Y31898D01*
X123887Y34403D01*
X123600Y34595D01*
X123263Y34662D01*
X122925Y34595D01*
X122805Y34514D01*
X122050Y35270D01*
X122130Y35390D01*
X122197Y35727D01*
X122130Y36065D01*
X121938Y36352D01*
X119433Y38857D01*
X119146Y39049D01*
X118808Y39116D01*
X118470Y39049D01*
X118184Y38857D01*
X117713Y38387D01*
X110701D01*
X110573Y39364D01*
X110168Y40341D01*
X109524Y41179D01*
X108685Y41823D01*
X107709Y42228D01*
X106660Y42366D01*
D02*
G37*
G36*
X113344Y26649D02*
X110535D01*
X107727D01*
Y26264D01*
X107873Y25528D01*
X108290Y24904D01*
X108735Y24606D01*
Y23233D01*
X108386Y22999D01*
X108049Y22495D01*
X104622D01*
X104228Y22758D01*
X103500Y22903D01*
X102772Y22758D01*
X102155Y22345D01*
X101742Y21728D01*
X101597Y21000D01*
X101742Y20272D01*
X102155Y19655D01*
X102772Y19242D01*
X103500Y19097D01*
X104228Y19242D01*
X104622Y19505D01*
X107954D01*
X107999Y19281D01*
X108386Y18701D01*
X108966Y18314D01*
X109649Y18178D01*
X111421D01*
X112105Y18314D01*
X112684Y18701D01*
X113071Y19281D01*
X113086Y19355D01*
X114724D01*
X114957Y19200D01*
X115295Y19132D01*
X118051D01*
X118389Y19200D01*
X118676Y19391D01*
X118867Y19678D01*
X118935Y20016D01*
Y21984D01*
X118867Y22322D01*
X118676Y22609D01*
X118389Y22800D01*
X118051Y22868D01*
X115295D01*
X114957Y22800D01*
X114671Y22609D01*
X114495Y22345D01*
X113086D01*
X113071Y22420D01*
X112684Y22999D01*
X112185Y23333D01*
Y24506D01*
X112781Y24904D01*
X113197Y25528D01*
X113344Y26264D01*
Y26649D01*
D02*
G37*
G36*
X51035Y11620D02*
Y8000D01*
X54655D01*
X54578Y8583D01*
X54160Y9593D01*
X53495Y10459D01*
X52628Y11125D01*
X51619Y11543D01*
X51035Y11620D01*
D02*
G37*
G36*
X123685Y11669D02*
X121035D01*
Y8000D01*
X124705D01*
Y10650D01*
X124627Y11040D01*
X124406Y11371D01*
X124075Y11592D01*
X123685Y11669D01*
D02*
G37*
G36*
X71809Y20351D02*
X69500D01*
Y18042D01*
X69886D01*
X70622Y18188D01*
X71246Y18605D01*
X71662Y19229D01*
X71809Y19965D01*
Y20351D01*
D02*
G37*
G36*
X68500D02*
X66192D01*
Y19965D01*
X66338Y19229D01*
X66755Y18605D01*
X67379Y18188D01*
X68114Y18042D01*
X68500D01*
Y20351D01*
D02*
G37*
G36*
X118173Y75468D02*
X115480D01*
X112787D01*
Y74984D01*
X112865Y74594D01*
X113086Y74263D01*
Y73737D01*
X112865Y73406D01*
X112787Y73016D01*
Y72531D01*
X115480D01*
X118173D01*
Y73016D01*
X118096Y73406D01*
X117875Y73737D01*
Y74263D01*
X118096Y74594D01*
X118173Y74984D01*
Y75468D01*
D02*
G37*
G36*
X65587Y81690D02*
X60075D01*
X59737Y81623D01*
X59450Y81432D01*
X59259Y81145D01*
X59192Y80807D01*
Y76279D01*
X59259Y75942D01*
X59450Y75655D01*
X59737Y75464D01*
X60075Y75396D01*
X65587D01*
X65898Y75458D01*
X66035Y75349D01*
X66278Y75099D01*
X66273Y75066D01*
X66227Y75002D01*
X65710Y74716D01*
X65587Y74740D01*
X63331D01*
Y71457D01*
Y68173D01*
X65587D01*
X65977Y68251D01*
X66107Y68338D01*
X66607Y68089D01*
Y67528D01*
X66107Y67261D01*
X66069Y67287D01*
X65535Y67393D01*
X59577D01*
X57803Y69167D01*
X57808Y69193D01*
Y73721D01*
X57741Y74058D01*
X57550Y74345D01*
X57263Y74536D01*
X56925Y74604D01*
X51413D01*
X51075Y74536D01*
X50789Y74345D01*
X50598Y74058D01*
X50530Y73721D01*
Y69193D01*
X50598Y68855D01*
X50789Y68568D01*
X51075Y68377D01*
X51413Y68310D01*
X54720D01*
X57758Y65272D01*
X57551Y64772D01*
X56877D01*
X56309Y64659D01*
X55827Y64337D01*
X55332D01*
X55268Y64433D01*
X54742Y64785D01*
X54121Y64908D01*
X54031D01*
Y62499D01*
Y60090D01*
X54121D01*
X54742Y60214D01*
X55268Y60565D01*
X55332Y60662D01*
X55827D01*
X56309Y60340D01*
X56877Y60227D01*
X58059D01*
X58627Y60340D01*
X59109Y60662D01*
X59406Y61106D01*
X60424D01*
X60614Y60916D01*
X60742Y60272D01*
X61155Y59655D01*
X61458Y59452D01*
X61306Y58952D01*
X53484D01*
X53473Y59005D01*
X53282Y59291D01*
X52995Y59483D01*
X52658Y59550D01*
X51476D01*
X51138Y59483D01*
X51105Y59460D01*
X50882Y59609D01*
X50500Y59685D01*
Y57978D01*
X49500D01*
Y59685D01*
X49118Y59609D01*
X49016Y59541D01*
X48914Y59609D01*
X48524Y59686D01*
X48433D01*
Y57978D01*
X47933D01*
Y57478D01*
X46323D01*
Y57289D01*
X46357Y57117D01*
X46033Y56617D01*
X44189D01*
X43834Y57149D01*
X43255Y57536D01*
X42571Y57672D01*
X40799D01*
X40116Y57536D01*
X39536Y57149D01*
X39203Y56650D01*
X37868D01*
X37535Y57149D01*
X36955Y57536D01*
X36272Y57672D01*
X34500D01*
X33817Y57536D01*
X33632Y57412D01*
X32283D01*
X32097Y57691D01*
X31810Y57883D01*
X31472Y57950D01*
X29106D01*
X28978Y58103D01*
X28792Y58450D01*
X28850Y58740D01*
Y60307D01*
X23999D01*
Y57721D01*
X26329D01*
X26420Y57647D01*
X26683Y57221D01*
X26652Y57067D01*
Y52933D01*
X26683Y52779D01*
X26420Y52353D01*
X26329Y52279D01*
X23999D01*
Y49693D01*
X28850D01*
Y51260D01*
X28792Y51550D01*
X28978Y51897D01*
X29106Y52050D01*
X31472D01*
X31810Y52117D01*
X32097Y52309D01*
X32283Y52587D01*
X33632D01*
X33817Y52464D01*
X34500Y52328D01*
X36272D01*
X36955Y52464D01*
X37535Y52851D01*
X37768Y53200D01*
X39303D01*
X39536Y52851D01*
X40116Y52464D01*
X40799Y52328D01*
X42571D01*
X43255Y52464D01*
X43834Y52851D01*
X44221Y53430D01*
X44260Y53627D01*
X47969D01*
X48083Y53650D01*
X48524D01*
X48607Y53581D01*
Y53535D01*
X48713Y53002D01*
X49015Y52551D01*
X50050Y51515D01*
X50502Y51213D01*
X51035Y51107D01*
X54430D01*
X54637Y50607D01*
X49653Y45623D01*
X45859D01*
X44619Y46863D01*
X44333Y47054D01*
X43995Y47121D01*
X43657Y47054D01*
X43370Y46863D01*
X38637Y42130D01*
X38446Y41844D01*
X38379Y41506D01*
X38446Y41168D01*
X38637Y40881D01*
X38638Y40881D01*
X39044Y40474D01*
X36652Y38081D01*
X36490Y38243D01*
X35911Y38630D01*
X35227Y38766D01*
X34544Y38630D01*
X33964Y38243D01*
X32712Y36990D01*
X32324Y36411D01*
X32188Y35727D01*
X32305Y35138D01*
X31476Y34309D01*
X30773Y34448D01*
X30037Y34302D01*
X29414Y33885D01*
X29141Y33612D01*
X31127Y31626D01*
X33113Y29640D01*
X33386Y29913D01*
X33802Y30537D01*
X33949Y31273D01*
X33844Y31799D01*
X34815Y32770D01*
X35227Y32688D01*
X35911Y32824D01*
X36490Y33211D01*
X37743Y34464D01*
X38131Y35043D01*
X38267Y35727D01*
X38262Y35752D01*
X41014Y38504D01*
X41421Y38097D01*
X41708Y37906D01*
X42046Y37839D01*
X42384Y37906D01*
X42670Y38097D01*
X47403Y42830D01*
X47407Y42837D01*
X50140D01*
X50352Y42687D01*
X50587Y42398D01*
Y40075D01*
X50330Y39903D01*
X45597Y35170D01*
X45406Y34884D01*
X45338Y34546D01*
X45406Y34208D01*
X45597Y33921D01*
X45597Y33921D01*
X46004Y33514D01*
X43168Y30678D01*
X42727Y30766D01*
X42044Y30630D01*
X41464Y30243D01*
X40212Y28990D01*
X39824Y28411D01*
X39688Y27727D01*
X39805Y27138D01*
X38976Y26309D01*
X38273Y26448D01*
X37537Y26302D01*
X36914Y25885D01*
X36641Y25612D01*
X38627Y23626D01*
X40613Y21640D01*
X40886Y21913D01*
X41302Y22537D01*
X41449Y23273D01*
X41344Y23799D01*
X42316Y24770D01*
X42727Y24688D01*
X43411Y24824D01*
X43990Y25211D01*
X45243Y26464D01*
X45630Y27044D01*
X45766Y27727D01*
X45630Y28411D01*
X45314Y28884D01*
X47974Y31545D01*
X48381Y31137D01*
X48667Y30946D01*
X49005Y30879D01*
X49343Y30946D01*
X49630Y31137D01*
X54363Y35870D01*
X54554Y36156D01*
X54621Y36494D01*
X54554Y36832D01*
X54363Y37119D01*
X54362Y37119D01*
X53373Y38109D01*
Y41943D01*
X59376Y47947D01*
X59687Y47931D01*
X60135Y47717D01*
X60240Y47187D01*
X60540Y46737D01*
Y46727D01*
X60240Y46278D01*
X60135Y45748D01*
X60240Y45218D01*
X60540Y44769D01*
Y44759D01*
X60240Y44309D01*
X60135Y43780D01*
X60240Y43250D01*
X60540Y42800D01*
X60990Y42500D01*
X61520Y42395D01*
X64308D01*
X64585Y42219D01*
X64761Y41942D01*
Y39154D01*
X64866Y38624D01*
X65166Y38174D01*
X65616Y37874D01*
X66146Y37769D01*
X66676Y37874D01*
X67125Y38174D01*
X67135D01*
X67584Y37874D01*
X68114Y37769D01*
X68190Y37784D01*
X68690Y37373D01*
Y36124D01*
X67958Y35392D01*
X66941D01*
X66644Y35837D01*
X66162Y36159D01*
X65594Y36272D01*
X64413D01*
X63845Y36159D01*
X63363Y35837D01*
X62868D01*
X62803Y35933D01*
X62277Y36285D01*
X61657Y36408D01*
X61566D01*
Y33999D01*
Y31590D01*
X61657D01*
X62277Y31714D01*
X62803Y32065D01*
X62818Y32086D01*
X63318Y31935D01*
Y31288D01*
X63278Y31228D01*
X63133Y30500D01*
X63278Y29772D01*
X63690Y29155D01*
X64307Y28742D01*
X65035Y28597D01*
X65764Y28742D01*
X66034Y28923D01*
X66106Y28888D01*
X66439Y28592D01*
X66328Y28036D01*
Y26264D01*
X66464Y25580D01*
X66851Y25001D01*
X67350Y24667D01*
Y23494D01*
X66755Y23096D01*
X66338Y22472D01*
X66192Y21736D01*
Y21351D01*
X69000D01*
X71809D01*
Y21736D01*
X71662Y22472D01*
X71246Y23096D01*
X70800Y23394D01*
Y24768D01*
X71149Y25001D01*
X71536Y25580D01*
X71672Y26264D01*
Y28036D01*
X71536Y28719D01*
X71149Y29299D01*
X70929Y29446D01*
Y30073D01*
X72165Y31309D01*
X72627Y31118D01*
Y15597D01*
X69551Y12520D01*
X69249Y12069D01*
X69143Y11535D01*
Y11270D01*
X68510Y11008D01*
X67671Y10364D01*
X67028Y9525D01*
X66623Y8548D01*
X66485Y7500D01*
X66623Y6452D01*
X67028Y5475D01*
X67671Y4636D01*
X68510Y3992D01*
X69487Y3588D01*
X70535Y3450D01*
X71584Y3588D01*
X72561Y3992D01*
X73400Y4636D01*
X74043Y5475D01*
X74448Y6452D01*
X74586Y7500D01*
X74448Y8548D01*
X74043Y9525D01*
X73400Y10364D01*
X72631Y10954D01*
X72498Y11321D01*
X72464Y11494D01*
X75005Y14035D01*
X75307Y14487D01*
X75413Y15020D01*
Y17464D01*
X75875Y17656D01*
X79142Y14388D01*
Y11270D01*
X78510Y11008D01*
X77671Y10364D01*
X77028Y9525D01*
X76623Y8548D01*
X76485Y7500D01*
X76623Y6452D01*
X77028Y5475D01*
X77671Y4636D01*
X78510Y3992D01*
X79487Y3588D01*
X80535Y3450D01*
X81584Y3588D01*
X82561Y3992D01*
X83399Y4636D01*
X84043Y5475D01*
X84448Y6452D01*
X84586Y7500D01*
X84448Y8548D01*
X84043Y9525D01*
X83399Y10364D01*
X82561Y11008D01*
X81928Y11270D01*
Y14930D01*
X82007Y14999D01*
X82398Y15168D01*
X87467Y10098D01*
X87028Y9525D01*
X86623Y8548D01*
X86485Y7500D01*
X86623Y6452D01*
X87028Y5475D01*
X87671Y4636D01*
X88510Y3992D01*
X89487Y3588D01*
X90535Y3450D01*
X91584Y3588D01*
X92561Y3992D01*
X93400Y4636D01*
X94043Y5475D01*
X94448Y6452D01*
X94586Y7500D01*
X94474Y8349D01*
X94948Y8583D01*
X96015Y7515D01*
X96467Y7213D01*
X96524Y7202D01*
X96623Y6452D01*
X97028Y5475D01*
X97671Y4636D01*
X98510Y3992D01*
X99487Y3588D01*
X100535Y3450D01*
X101584Y3588D01*
X102561Y3992D01*
X103400Y4636D01*
X104043Y5475D01*
X104448Y6452D01*
X104586Y7500D01*
X104448Y8548D01*
X104043Y9525D01*
X103400Y10364D01*
X102561Y11008D01*
X101584Y11412D01*
X100535Y11550D01*
X99487Y11412D01*
X98510Y11008D01*
X97671Y10364D01*
X97657Y10345D01*
X97158Y10312D01*
X82198Y25272D01*
X82389Y25736D01*
X82420Y25757D01*
X82729Y25696D01*
X83834D01*
X85614Y23916D01*
X85742Y23272D01*
X86155Y22655D01*
X86772Y22242D01*
X87500Y22097D01*
X88228Y22242D01*
X88845Y22655D01*
X89258Y23272D01*
X89403Y24000D01*
X89273Y24653D01*
X90298Y25678D01*
X91886D01*
X92569Y25814D01*
X93149Y26201D01*
X93536Y26781D01*
X93672Y27464D01*
Y29236D01*
X93536Y29920D01*
X93149Y30499D01*
X92650Y30833D01*
Y32006D01*
X93245Y32404D01*
X93662Y33028D01*
X93808Y33764D01*
Y34149D01*
X91000D01*
X88191D01*
Y33764D01*
X88337Y33028D01*
X88754Y32404D01*
X89200Y32106D01*
Y30733D01*
X88851Y30499D01*
X88464Y29920D01*
X88328Y29236D01*
Y27648D01*
X87655Y26975D01*
X87155Y27182D01*
Y30122D01*
X87088Y30460D01*
X86896Y30747D01*
X86610Y30938D01*
X86468Y30966D01*
Y32034D01*
X86610Y32062D01*
X86896Y32254D01*
X87088Y32540D01*
X87155Y32878D01*
Y36421D01*
X87088Y36759D01*
X86896Y37046D01*
X86610Y37237D01*
X86272Y37305D01*
X85706D01*
X85485Y37635D01*
X84468Y38652D01*
Y42395D01*
X84551D01*
X85081Y42500D01*
X85530Y42800D01*
X85831Y43250D01*
X85936Y43780D01*
X85921Y43855D01*
X86331Y44355D01*
X88179D01*
X89228Y43306D01*
Y42877D01*
X89341Y42309D01*
X89663Y41827D01*
Y41333D01*
X89566Y41268D01*
X89215Y40742D01*
X89092Y40121D01*
Y40031D01*
X91501D01*
X93910D01*
Y40121D01*
X93786Y40742D01*
X93435Y41268D01*
X93338Y41333D01*
Y41827D01*
X93504Y42075D01*
X97003D01*
X97325Y42139D01*
X97535Y42097D01*
X98264Y42242D01*
X98672Y42515D01*
X100535D01*
X100535Y42515D01*
X101104Y42628D01*
X101586Y42950D01*
X109735Y51099D01*
X110057Y51581D01*
X110170Y52149D01*
X110170Y52149D01*
Y52947D01*
X110254Y52964D01*
X110834Y53351D01*
X111221Y53931D01*
X111357Y54614D01*
Y56386D01*
X111221Y57070D01*
X110834Y57649D01*
X110254Y58036D01*
X109571Y58172D01*
X107799D01*
X107115Y58036D01*
X106536Y57649D01*
X106415Y57468D01*
X104655D01*
X104534Y57649D01*
X103955Y58036D01*
X103271Y58172D01*
X102929D01*
Y61976D01*
X103208Y62163D01*
X103703D01*
X103767Y62067D01*
X104294Y61715D01*
X104914Y61592D01*
X105005D01*
Y64001D01*
Y66410D01*
X104914D01*
X104294Y66286D01*
X103767Y65935D01*
X103703Y65838D01*
X103208D01*
X102726Y66160D01*
X102158Y66273D01*
X100977D01*
X100408Y66160D01*
X99927Y65838D01*
X99605Y65356D01*
X99492Y64788D01*
Y63213D01*
X99605Y62645D01*
X99927Y62163D01*
X100143Y62019D01*
Y58605D01*
X99643Y58453D01*
X99381Y58845D01*
X98764Y59258D01*
X98035Y59403D01*
X97307Y59258D01*
X96761Y58893D01*
X95807D01*
X95540Y59393D01*
X95793Y59772D01*
X95938Y60500D01*
X95793Y61228D01*
X95381Y61845D01*
X94764Y62258D01*
X94035Y62403D01*
X93307Y62258D01*
X92761Y61893D01*
X91141D01*
X90989Y62393D01*
X91381Y62655D01*
X91793Y63272D01*
X91938Y64000D01*
X91793Y64728D01*
X91381Y65345D01*
X90764Y65758D01*
X90035Y65903D01*
X89307Y65758D01*
X88690Y65345D01*
X88278Y64728D01*
X88149Y64084D01*
X83009Y58944D01*
X82097D01*
X81805Y59407D01*
X81810Y59444D01*
X82229Y59724D01*
X90308Y67803D01*
X90817Y67464D01*
X91500Y67328D01*
X93272D01*
X93955Y67464D01*
X94535Y67851D01*
X94656Y68032D01*
X96416Y68032D01*
X96536Y67851D01*
X97116Y67464D01*
X97799Y67328D01*
X99571D01*
X100255Y67464D01*
X100834Y67851D01*
X101221Y68430D01*
X101257Y68607D01*
X106559D01*
X107092Y68713D01*
X107544Y69015D01*
X108693Y70164D01*
X110264D01*
X110602Y70231D01*
X110888Y70423D01*
X111080Y70709D01*
X111147Y71047D01*
Y73016D01*
X111080Y73354D01*
X110888Y73640D01*
X110766Y73722D01*
X110757Y73747D01*
Y74253D01*
X110766Y74278D01*
X110888Y74360D01*
X111080Y74646D01*
X111147Y74984D01*
Y76953D01*
X111080Y77291D01*
X110888Y77577D01*
X110602Y77769D01*
X110264Y77836D01*
X108693D01*
X108544Y77985D01*
X108092Y78287D01*
X107559Y78393D01*
X101257D01*
X101221Y78569D01*
X100834Y79149D01*
X100255Y79536D01*
X99571Y79672D01*
X97799D01*
X97116Y79536D01*
X96536Y79149D01*
X96416Y78969D01*
X94655D01*
X94535Y79149D01*
X93955Y79536D01*
X93272Y79672D01*
X91500D01*
X90817Y79536D01*
X90237Y79149D01*
X89850Y78569D01*
X89815Y78393D01*
X88035D01*
X87502Y78287D01*
X87050Y77985D01*
X82551Y73485D01*
X82249Y73033D01*
X82143Y72500D01*
Y72272D01*
X81643Y72005D01*
X81264Y72258D01*
X80535Y72403D01*
X79807Y72258D01*
X79747Y72218D01*
X79100D01*
X78948Y72718D01*
X78969Y72732D01*
X79320Y73258D01*
X79444Y73879D01*
Y73969D01*
X77035D01*
Y74469D01*
X76535D01*
Y76682D01*
X76247D01*
X75627Y76558D01*
X75101Y76207D01*
X74812Y75774D01*
X74577Y75729D01*
X74493D01*
X74258Y75774D01*
X73969Y76207D01*
X73443Y76558D01*
X72822Y76682D01*
X72535D01*
Y74469D01*
X71535D01*
Y76682D01*
X71247D01*
X70627Y76558D01*
X70101Y76207D01*
X69840Y75816D01*
X69318Y75879D01*
X69287Y76033D01*
X68985Y76485D01*
X66470Y79000D01*
Y80807D01*
X66403Y81145D01*
X66211Y81432D01*
X65925Y81623D01*
X65587Y81690D01*
D02*
G37*
G36*
X77822Y76682D02*
X77535D01*
Y74969D01*
X79444D01*
Y75060D01*
X79320Y75680D01*
X78969Y76207D01*
X78443Y76558D01*
X77822Y76682D01*
D02*
G37*
G36*
X62331Y74740D02*
X60075D01*
X59685Y74663D01*
X59354Y74441D01*
X59133Y74111D01*
X59055Y73721D01*
Y71957D01*
X62331D01*
Y74740D01*
D02*
G37*
G36*
X114980Y71531D02*
X112787D01*
Y71047D01*
X112865Y70657D01*
X113086Y70326D01*
X113417Y70105D01*
X113807Y70028D01*
X114980D01*
Y71531D01*
D02*
G37*
G36*
X118173D02*
X115980D01*
Y70028D01*
X117154D01*
X117544Y70105D01*
X117875Y70326D01*
X118096Y70657D01*
X118173Y71047D01*
Y71531D01*
D02*
G37*
G36*
X129535Y78550D02*
X128487Y78412D01*
X127510Y78008D01*
X126671Y77364D01*
X126028Y76525D01*
X125623Y75548D01*
X125485Y74500D01*
X125623Y73452D01*
X126028Y72475D01*
X126671Y71636D01*
X127510Y70992D01*
X128487Y70588D01*
X129535Y70450D01*
X130584Y70588D01*
X131561Y70992D01*
X132399Y71636D01*
X133043Y72475D01*
X133448Y73452D01*
X133586Y74500D01*
X133448Y75548D01*
X133043Y76525D01*
X132399Y77364D01*
X131561Y78008D01*
X130584Y78412D01*
X129535Y78550D01*
D02*
G37*
G36*
X53669Y78043D02*
X50394D01*
Y76279D01*
X50471Y75889D01*
X50692Y75559D01*
X51023Y75337D01*
X51413Y75260D01*
X53669D01*
Y78043D01*
D02*
G37*
G36*
X56925Y81827D02*
X54669D01*
Y79043D01*
X57945D01*
Y80807D01*
X57867Y81197D01*
X57646Y81528D01*
X57315Y81749D01*
X56925Y81827D01*
D02*
G37*
G36*
X129535Y88550D02*
X128487Y88412D01*
X127510Y88008D01*
X126671Y87364D01*
X126028Y86525D01*
X125623Y85548D01*
X125485Y84500D01*
X125623Y83452D01*
X126028Y82475D01*
X126671Y81636D01*
X127510Y80992D01*
X128487Y80588D01*
X129535Y80450D01*
X130584Y80588D01*
X131561Y80992D01*
X132399Y81636D01*
X133043Y82475D01*
X133448Y83452D01*
X133586Y84500D01*
X133448Y85548D01*
X133043Y86525D01*
X132399Y87364D01*
X131561Y88008D01*
X130584Y88412D01*
X129535Y88550D01*
D02*
G37*
G36*
X132685Y98533D02*
X126386D01*
X126048Y98466D01*
X125761Y98274D01*
X125570Y97988D01*
X125503Y97650D01*
Y91350D01*
X125570Y91013D01*
X125761Y90726D01*
X126048Y90535D01*
X126386Y90467D01*
X132685D01*
X133023Y90535D01*
X133309Y90726D01*
X133501Y91013D01*
X133568Y91350D01*
Y97650D01*
X133501Y97988D01*
X133309Y98274D01*
X133023Y98466D01*
X132685Y98533D01*
D02*
G37*
G36*
X53669Y81827D02*
X51413D01*
X51023Y81749D01*
X50692Y81528D01*
X50471Y81197D01*
X50394Y80807D01*
Y79043D01*
X53669D01*
Y81827D01*
D02*
G37*
G36*
X57945Y78043D02*
X54669D01*
Y75260D01*
X56925D01*
X57315Y75337D01*
X57646Y75559D01*
X57867Y75889D01*
X57945Y76279D01*
Y78043D01*
D02*
G37*
G36*
X114980Y77972D02*
X113807D01*
X113417Y77895D01*
X113086Y77674D01*
X112865Y77343D01*
X112787Y76953D01*
Y76468D01*
X114980D01*
Y77972D01*
D02*
G37*
G36*
X117154D02*
X115980D01*
Y76468D01*
X118173D01*
Y76953D01*
X118096Y77343D01*
X117875Y77674D01*
X117544Y77895D01*
X117154Y77972D01*
D02*
G37*
G36*
X22999Y60307D02*
X18149D01*
Y58740D01*
X18180Y58587D01*
X17996Y58311D01*
Y55500D01*
X20484D01*
Y57067D01*
X20454Y57221D01*
X20786Y57721D01*
X22999D01*
Y60307D01*
D02*
G37*
G36*
X20484Y54500D02*
X17996D01*
Y51689D01*
X18180Y51414D01*
X18149Y51260D01*
Y49693D01*
X22999D01*
Y52279D01*
X20786D01*
X20454Y52779D01*
X20484Y52933D01*
Y54500D01*
D02*
G37*
G36*
X53031Y61999D02*
X51319D01*
Y61712D01*
X51442Y61091D01*
X51793Y60565D01*
X52320Y60214D01*
X52940Y60090D01*
X53031D01*
Y61999D01*
D02*
G37*
G36*
X47433Y59686D02*
X47343D01*
X46952Y59609D01*
X46622Y59388D01*
X46400Y59057D01*
X46323Y58667D01*
Y58478D01*
X47433D01*
Y59686D01*
D02*
G37*
G36*
X22999Y48693D02*
X18149D01*
Y47126D01*
X18227Y46736D01*
X18448Y46405D01*
X18778Y46184D01*
X19169Y46106D01*
X22999D01*
Y48693D01*
D02*
G37*
G36*
X113731Y49437D02*
X112683Y49299D01*
X111706Y48894D01*
X110867Y48250D01*
X110223Y47412D01*
X109819Y46435D01*
X109681Y45386D01*
X109819Y44338D01*
X110223Y43361D01*
X110867Y42522D01*
X111706Y41879D01*
X112683Y41474D01*
X113731Y41336D01*
X114779Y41474D01*
X115756Y41879D01*
X116595Y42522D01*
X117239Y43361D01*
X117644Y44338D01*
X117782Y45386D01*
X117644Y46435D01*
X117239Y47412D01*
X116595Y48250D01*
X115756Y48894D01*
X114779Y49299D01*
X113731Y49437D01*
D02*
G37*
G36*
X120802Y57795D02*
X120464Y57727D01*
X120178Y57536D01*
X115724Y53082D01*
X115532Y52795D01*
X115465Y52457D01*
X115532Y52119D01*
X115724Y51833D01*
X120178Y47379D01*
X120464Y47187D01*
X120802Y47120D01*
X121140Y47187D01*
X121427Y47379D01*
X125881Y51833D01*
X126072Y52119D01*
X126140Y52457D01*
X126072Y52795D01*
X125881Y53082D01*
X121427Y57536D01*
X121140Y57727D01*
X121084Y57739D01*
X120802Y57795D01*
D02*
G37*
G36*
X28850Y48693D02*
X23999D01*
Y46106D01*
X27830D01*
X28220Y46184D01*
X28551Y46405D01*
X28772Y46736D01*
X28850Y47126D01*
Y48693D01*
D02*
G37*
G36*
X53031Y64908D02*
X52940D01*
X52320Y64785D01*
X51793Y64433D01*
X51442Y63907D01*
X51319Y63287D01*
Y62999D01*
X53031D01*
Y64908D01*
D02*
G37*
G36*
X106095Y66410D02*
X106005D01*
Y64501D01*
X107717D01*
Y64788D01*
X107594Y65409D01*
X107242Y65935D01*
X106716Y66286D01*
X106095Y66410D01*
D02*
G37*
G36*
X62331Y70957D02*
X59055D01*
Y69193D01*
X59133Y68803D01*
X59354Y68472D01*
X59685Y68251D01*
X60075Y68173D01*
X62331D01*
Y70957D01*
D02*
G37*
G36*
X107717Y63501D02*
X106005D01*
Y61592D01*
X106095D01*
X106716Y61715D01*
X107242Y62067D01*
X107594Y62593D01*
X107717Y63213D01*
Y63501D01*
D02*
G37*
G36*
X22999Y63894D02*
X19169D01*
X18778Y63816D01*
X18448Y63595D01*
X18227Y63264D01*
X18149Y62874D01*
Y61307D01*
X22999D01*
Y63894D01*
D02*
G37*
G36*
X129535Y68550D02*
X128487Y68412D01*
X127510Y68008D01*
X126671Y67364D01*
X126028Y66525D01*
X125623Y65548D01*
X125485Y64500D01*
X125623Y63452D01*
X126028Y62475D01*
X126671Y61636D01*
X127510Y60992D01*
X128487Y60588D01*
X129535Y60450D01*
X130584Y60588D01*
X131561Y60992D01*
X132399Y61636D01*
X133043Y62475D01*
X133448Y63452D01*
X133586Y64500D01*
X133448Y65548D01*
X133043Y66525D01*
X132399Y67364D01*
X131561Y68008D01*
X130584Y68412D01*
X129535Y68550D01*
D02*
G37*
G36*
X27830Y63894D02*
X23999D01*
Y61307D01*
X28850D01*
Y62874D01*
X28772Y63264D01*
X28551Y63595D01*
X28220Y63816D01*
X27830Y63894D01*
D02*
G37*
%LPD*%
G36*
X89850Y75430D02*
X90237Y74851D01*
X90817Y74464D01*
X91500Y74328D01*
X93272D01*
X93955Y74464D01*
X94535Y74851D01*
X94656Y75032D01*
X96416Y75032D01*
X96536Y74851D01*
X97116Y74464D01*
X97799Y74328D01*
X99571D01*
X100255Y74464D01*
X100834Y74851D01*
X101221Y75430D01*
X101257Y75607D01*
X106034D01*
Y74984D01*
X106101Y74646D01*
X106293Y74360D01*
X106416Y74278D01*
X106424Y74253D01*
Y73747D01*
X106416Y73722D01*
X106293Y73640D01*
X106101Y73354D01*
X106034Y73016D01*
Y71445D01*
X105982Y71393D01*
X101257D01*
X101221Y71569D01*
X100834Y72149D01*
X100255Y72536D01*
X99571Y72672D01*
X97799D01*
X97116Y72536D01*
X96536Y72149D01*
X96416Y71969D01*
X94655D01*
X94535Y72149D01*
X93955Y72536D01*
X93272Y72672D01*
X91500D01*
X90817Y72536D01*
X90237Y72149D01*
X89850Y71569D01*
X89762Y71126D01*
X89550Y70985D01*
X81595Y63030D01*
X80952Y63093D01*
X80904Y63164D01*
X80455Y63464D01*
X79925Y63570D01*
X79850Y63555D01*
X79764Y63604D01*
X79629Y64124D01*
X84520Y69015D01*
X84822Y69467D01*
X84928Y70000D01*
Y71923D01*
X88612Y75607D01*
X89815D01*
X89850Y75430D01*
D02*
G37*
D10*
X23499Y60807D02*
D03*
Y49193D02*
D03*
D11*
X17496Y55000D02*
D03*
X29504D02*
D03*
D12*
X91000Y34649D02*
D03*
X91000Y28350D02*
D03*
X69000Y20851D02*
D03*
Y27150D02*
D03*
X110535Y27149D02*
D03*
X110535Y20850D02*
D03*
D13*
X84500Y28351D02*
D03*
Y34650D02*
D03*
D14*
X98685Y70000D02*
D03*
X92386Y70000D02*
D03*
X98685Y77000D02*
D03*
X92386Y77000D02*
D03*
X108685Y55500D02*
D03*
X102386D02*
D03*
X41685Y55000D02*
D03*
X35386D02*
D03*
D15*
X50000Y57978D02*
D03*
Y55222D02*
D03*
D16*
X52067Y57978D02*
D03*
X47933D02*
D03*
Y55222D02*
D03*
X52067D02*
D03*
D17*
X54169Y78543D02*
D03*
Y71457D02*
D03*
X62831D02*
D03*
Y78543D02*
D03*
D18*
X43020Y42480D02*
D03*
X49980Y35520D02*
D03*
D19*
X115480Y75968D02*
D03*
Y72031D02*
D03*
X108591Y72031D02*
D03*
Y75968D02*
D03*
D20*
X38273Y23273D02*
D03*
X42727Y27727D02*
D03*
X30773Y31273D02*
D03*
X35227Y35727D02*
D03*
D21*
X53531Y62499D02*
D03*
X57468D02*
D03*
X61066Y33999D02*
D03*
X65003D02*
D03*
X105505Y64001D02*
D03*
X101567D02*
D03*
D22*
X91501Y39531D02*
D03*
Y43468D02*
D03*
X77035Y74469D02*
D03*
Y70532D02*
D03*
X72035Y74469D02*
D03*
Y70532D02*
D03*
D23*
X123263Y31273D02*
D03*
X118808Y35727D02*
D03*
D24*
X62996Y57559D02*
D03*
D25*
Y55590D02*
D03*
Y53622D02*
D03*
Y51653D02*
D03*
Y49685D02*
D03*
Y47717D02*
D03*
Y45748D02*
D03*
Y43780D02*
D03*
X83075D02*
D03*
Y45748D02*
D03*
Y47717D02*
D03*
Y49685D02*
D03*
Y51653D02*
D03*
Y53622D02*
D03*
Y55590D02*
D03*
Y57559D02*
D03*
D26*
X66146Y40630D02*
D03*
X68114D02*
D03*
X70083D02*
D03*
X72051D02*
D03*
X74020D02*
D03*
X75988D02*
D03*
X77957D02*
D03*
X79925D02*
D03*
Y60709D02*
D03*
X77957D02*
D03*
X75988D02*
D03*
X72051D02*
D03*
X70083D02*
D03*
X68114D02*
D03*
X66146D02*
D03*
X74020D02*
D03*
D27*
X73035Y50669D02*
D03*
D28*
X116673Y21000D02*
D03*
X121791D02*
D03*
D29*
X141535Y33081D02*
D03*
X133116Y24662D02*
D03*
D30*
X29067Y55000D02*
X32067D01*
X35386D01*
X31720Y55031D02*
X32036D01*
D31*
X72035Y64501D02*
Y70532D01*
X84500Y34650D02*
Y36650D01*
X87500Y24850D02*
X91000Y28350D01*
X87500Y24000D02*
Y24850D01*
X84500Y27000D02*
X87500Y24000D01*
X84500Y27000D02*
Y28351D01*
X83075Y38075D02*
X84500Y36650D01*
X97000Y8500D02*
X100535D01*
X79925Y25575D02*
X97000Y8500D01*
X79925Y25575D02*
Y40630D01*
X50000Y53535D02*
Y55222D01*
X52102Y55122D02*
X52571Y55590D01*
X62996D01*
X52421Y57559D02*
X62996D01*
X52102Y57878D02*
X52421Y57559D01*
X51980Y42520D02*
X59145Y49685D01*
X51980Y37480D02*
Y42520D01*
X50020Y35520D02*
X51980Y37480D01*
X49980Y35520D02*
X50020D01*
X43020Y42480D02*
X44770Y44230D01*
X50230D01*
X36267Y35727D02*
X43020Y42480D01*
X35227Y35727D02*
X36267D01*
X42727Y28268D02*
X49980Y35520D01*
X42727Y27727D02*
Y28268D01*
X61001Y62499D02*
X62500Y61000D01*
X57468Y62499D02*
X61001D01*
X65535Y66000D02*
X68114Y63421D01*
X59000Y66000D02*
X65535D01*
X54169Y70831D02*
X59000Y66000D01*
X56122Y53622D02*
X62996D01*
X55000Y52500D02*
X56122Y53622D01*
X51035Y52500D02*
X55000D01*
X57653Y51653D02*
X62996D01*
X50230Y44230D02*
X57653Y51653D01*
X54169Y70831D02*
Y71457D01*
X64957Y78543D02*
X68000Y75500D01*
X62831Y78543D02*
X64957D01*
X71000Y69497D02*
X72035Y70532D01*
X68000Y66583D02*
X70083Y64500D01*
X68000Y66583D02*
Y75500D01*
X65854Y61000D02*
X66146Y60709D01*
X62500Y61000D02*
X65854D01*
X88035Y77000D02*
X92386D01*
X83535Y72500D02*
X88035Y77000D01*
X81244Y60709D02*
X90535Y70000D01*
X92386D01*
X85348Y55590D02*
X90257Y60500D01*
X94035D01*
X101536Y54650D02*
X102386Y53800D01*
X101536Y54650D02*
Y64001D01*
X97003Y43468D02*
X97535Y44000D01*
X91501Y43468D02*
X97003D01*
X70535Y7500D02*
Y11535D01*
X74020Y15020D01*
Y40630D01*
X80535Y10500D02*
Y14965D01*
X75988Y19512D02*
X80535Y14965D01*
X75988Y19512D02*
Y40630D01*
X77957D02*
X78000Y40587D01*
Y21535D02*
Y40587D01*
X59145Y49685D02*
X62996D01*
X91000Y50243D02*
X96243D01*
X90442Y49685D02*
X91000Y50243D01*
X99669Y47134D02*
X100354Y47819D01*
X90520Y47134D02*
X99669D01*
X89937Y47717D02*
X90520Y47134D01*
X83075Y47717D02*
X89937D01*
X88756Y45748D02*
X91036Y43468D01*
X83075Y45748D02*
X88756D01*
X83075Y49685D02*
X90442D01*
X50000Y53535D02*
X51035Y52500D01*
X83075Y38075D02*
Y43582D01*
X87035Y41000D02*
X88505Y39531D01*
X91036D01*
X65003Y33999D02*
X68535D01*
X70083Y35547D01*
Y40630D01*
X77035Y67999D02*
Y70532D01*
X74020Y64984D02*
X77035Y67999D01*
X74020Y60709D02*
Y64984D01*
X77035Y74469D02*
Y77999D01*
X72035D02*
X72035Y78000D01*
X72035Y74469D02*
Y77999D01*
X80535Y10500D02*
X81535Y9500D01*
X72035Y64501D02*
X72051Y64484D01*
X68114Y60709D02*
Y63421D01*
X72051Y60709D02*
Y64484D01*
X89535Y53500D02*
X94535D01*
X87689Y51653D02*
X89535Y53500D01*
X83075Y51653D02*
X87689D01*
X83595Y57559D02*
X90035Y64000D01*
X83075Y57559D02*
X83595D01*
X89896Y57500D02*
X98035D01*
X83075Y55590D02*
X85348D01*
X83075Y53622D02*
X86018D01*
X89896Y57500D01*
X69536Y29150D02*
Y30650D01*
X72051Y33165D01*
Y40630D01*
X79925Y60709D02*
X81244D01*
X98685Y70000D02*
X106559D01*
X108591Y72031D01*
X98685Y77000D02*
X107559D01*
X108591Y75968D01*
X102386Y53500D02*
Y53800D01*
X100354Y51468D02*
X102386Y53500D01*
X100354Y47819D02*
Y51468D01*
X78000Y21535D02*
X90535Y9000D01*
Y7500D02*
Y9000D01*
X77957Y60709D02*
Y64421D01*
X83535Y70000D01*
Y72500D01*
X70083Y60709D02*
Y64500D01*
D32*
X41807Y55122D02*
X47969D01*
X103500Y21000D02*
X110385D01*
X116524Y20850D02*
X116673Y21000D01*
X110535Y20850D02*
X116524D01*
X110385Y21000D02*
X110535Y20850D01*
X96243Y50243D02*
X96500Y50500D01*
D33*
X41685Y55000D02*
X41807Y55122D01*
D34*
X65003Y30532D02*
X65035Y30500D01*
X80503Y70532D02*
X80535Y70500D01*
X77035Y70532D02*
X80503D01*
X65003Y30532D02*
Y33999D01*
X129873Y24662D02*
X133116D01*
X121791Y21000D02*
X129454D01*
X133116Y24662D01*
X122685Y31851D02*
X129873Y24662D01*
D35*
X108685Y52149D02*
Y55500D01*
X97535Y44000D02*
X100535D01*
X108685Y52149D01*
D36*
X32036Y55031D02*
X32067Y55000D01*
X118808Y35727D02*
X118808D01*
X118036Y36500D02*
X118808Y35727D01*
X108475Y36500D02*
X118036D01*
X106660Y38315D02*
X108475Y36500D01*
D37*
X129535Y74500D02*
D03*
Y84500D02*
D03*
Y64500D02*
D03*
X106660Y38315D02*
D03*
X113731Y45386D02*
D03*
X99589Y31244D02*
D03*
X60535Y7500D02*
D03*
X80535D02*
D03*
X100535D02*
D03*
X110535D02*
D03*
X90535D02*
D03*
X70535D02*
D03*
X50535D02*
D03*
D38*
X129535Y94500D02*
D03*
D39*
X120802Y52457D02*
D03*
D40*
X120535Y7500D02*
D03*
D41*
X159750Y72243D02*
D03*
X158000Y68743D02*
D03*
X159750Y65243D02*
D03*
X158000Y61743D02*
D03*
X159750Y58243D02*
D03*
X158000Y54743D02*
D03*
X159750Y51243D02*
D03*
X158000Y47743D02*
D03*
X159750Y44243D02*
D03*
X158000Y40743D02*
D03*
X154500Y75743D02*
D03*
X156250Y72243D02*
D03*
X154500Y68743D02*
D03*
X156250Y65243D02*
D03*
X154500Y61743D02*
D03*
X156250Y58243D02*
D03*
X154500Y54743D02*
D03*
X156250Y51243D02*
D03*
X154500Y47743D02*
D03*
X156250Y44243D02*
D03*
X154500Y40743D02*
D03*
X156250Y37243D02*
D03*
X154500Y33743D02*
D03*
X152750Y79243D02*
D03*
X151000Y75743D02*
D03*
X152750Y72243D02*
D03*
X151000Y68743D02*
D03*
X152750Y65243D02*
D03*
X151000Y61743D02*
D03*
X152750Y58243D02*
D03*
X151000Y54743D02*
D03*
X152750Y51243D02*
D03*
X151000Y47743D02*
D03*
X152750Y44243D02*
D03*
X151000Y40743D02*
D03*
X152750Y37243D02*
D03*
X151000Y33743D02*
D03*
X147500Y82743D02*
D03*
X149250Y79243D02*
D03*
X147500Y75743D02*
D03*
X149250Y72243D02*
D03*
X147500Y68743D02*
D03*
X149250Y65243D02*
D03*
X147500Y61743D02*
D03*
X149250Y58243D02*
D03*
X147500Y54743D02*
D03*
X149250Y51243D02*
D03*
X147500Y47743D02*
D03*
X149250Y44243D02*
D03*
X147500Y40743D02*
D03*
X149250Y37243D02*
D03*
Y30243D02*
D03*
X147500Y26743D02*
D03*
X145750Y86243D02*
D03*
X144000Y82743D02*
D03*
X145750Y79243D02*
D03*
X144000Y75743D02*
D03*
X145750Y72243D02*
D03*
X144000Y68743D02*
D03*
X145750Y65243D02*
D03*
X144000Y61743D02*
D03*
X145750Y58243D02*
D03*
X144000Y54743D02*
D03*
X145750Y51243D02*
D03*
X144000Y47743D02*
D03*
X145750Y44243D02*
D03*
X144000Y40743D02*
D03*
X145750Y37243D02*
D03*
X140500Y89743D02*
D03*
X142250Y86243D02*
D03*
X140500Y82743D02*
D03*
X142250Y79243D02*
D03*
X140500Y75743D02*
D03*
X142250Y72243D02*
D03*
X140500Y68743D02*
D03*
X142250Y65243D02*
D03*
X140500Y61743D02*
D03*
X142250Y58243D02*
D03*
X140500Y54743D02*
D03*
X142250Y51243D02*
D03*
X140500Y47743D02*
D03*
X142250Y44243D02*
D03*
X140500Y40743D02*
D03*
Y26743D02*
D03*
X142250Y23243D02*
D03*
X140500Y19743D02*
D03*
X138750Y93243D02*
D03*
X137000Y89743D02*
D03*
X138750Y86243D02*
D03*
X137000Y82743D02*
D03*
X138750Y79243D02*
D03*
X137000Y75743D02*
D03*
X138750Y72243D02*
D03*
X137000Y68743D02*
D03*
X138750Y65243D02*
D03*
X137000Y61743D02*
D03*
X138750Y58243D02*
D03*
X137000Y54743D02*
D03*
X138750Y51243D02*
D03*
X137000Y47743D02*
D03*
X138750Y44243D02*
D03*
X137000Y40743D02*
D03*
X135250Y93243D02*
D03*
Y86243D02*
D03*
Y79243D02*
D03*
Y72243D02*
D03*
X133500Y68743D02*
D03*
X135250Y65243D02*
D03*
Y58243D02*
D03*
X133500Y54743D02*
D03*
X135250Y51243D02*
D03*
X133500Y47743D02*
D03*
X135250Y44243D02*
D03*
X133500Y40743D02*
D03*
X135250Y37243D02*
D03*
X133500Y33743D02*
D03*
X135250Y30243D02*
D03*
Y16243D02*
D03*
X133500Y12743D02*
D03*
X131750Y79243D02*
D03*
Y58243D02*
D03*
X130000Y54743D02*
D03*
X131750Y51243D02*
D03*
X130000Y47743D02*
D03*
X131750Y44243D02*
D03*
X130000Y40743D02*
D03*
X131750Y37243D02*
D03*
X130000Y33743D02*
D03*
X131750Y16243D02*
D03*
X130000Y12743D02*
D03*
X126500Y68743D02*
D03*
X128250Y58243D02*
D03*
X126500Y54743D02*
D03*
X128250Y51243D02*
D03*
X126500Y47743D02*
D03*
X128250Y44243D02*
D03*
X126500Y40743D02*
D03*
X128250Y37243D02*
D03*
X126500Y33743D02*
D03*
X128250Y30243D02*
D03*
Y16243D02*
D03*
X126500Y12743D02*
D03*
X128250Y9243D02*
D03*
X126500Y5743D02*
D03*
X124750Y86243D02*
D03*
X123000Y82743D02*
D03*
X124750Y79243D02*
D03*
X123000Y68743D02*
D03*
X124750Y58243D02*
D03*
Y44243D02*
D03*
X123000Y40743D02*
D03*
X124750Y37243D02*
D03*
X123000Y26743D02*
D03*
X124750Y16243D02*
D03*
X123000Y12743D02*
D03*
X121250Y93243D02*
D03*
X119500Y89743D02*
D03*
X121250Y79243D02*
D03*
X119500Y75743D02*
D03*
X121250Y44243D02*
D03*
X119500Y40743D02*
D03*
Y26743D02*
D03*
X121250Y16243D02*
D03*
X119500Y12743D02*
D03*
X117750Y86243D02*
D03*
Y79243D02*
D03*
X116000Y61743D02*
D03*
Y40743D02*
D03*
X117750Y30243D02*
D03*
X116000Y26743D02*
D03*
X117750Y16243D02*
D03*
X116000Y12743D02*
D03*
X114250Y86243D02*
D03*
X112500Y82743D02*
D03*
Y68743D02*
D03*
X114250Y30243D02*
D03*
Y16243D02*
D03*
X110750Y79243D02*
D03*
X109000Y68743D02*
D03*
X110750Y65243D02*
D03*
X107250Y44243D02*
D03*
Y16243D02*
D03*
X105500Y12743D02*
D03*
Y5743D02*
D03*
X102000Y12743D02*
D03*
X98500D02*
D03*
X95000Y33743D02*
D03*
Y26743D02*
D03*
X86250Y79243D02*
D03*
X82750D02*
D03*
X81000Y75743D02*
D03*
X79250Y79243D02*
D03*
X77500Y12743D02*
D03*
X75750Y9243D02*
D03*
X68750Y79243D02*
D03*
X67000Y12743D02*
D03*
X63500Y19743D02*
D03*
X60000Y40743D02*
D03*
X61750Y23243D02*
D03*
X60000Y19743D02*
D03*
X61750Y16243D02*
D03*
X56500Y40743D02*
D03*
X58250Y37243D02*
D03*
X56500Y33743D02*
D03*
X58250Y30243D02*
D03*
X56500Y26743D02*
D03*
X58250Y23243D02*
D03*
X56500Y19743D02*
D03*
X58250Y16243D02*
D03*
X56500Y12743D02*
D03*
X54750Y30243D02*
D03*
X53000Y26743D02*
D03*
X54750Y23243D02*
D03*
X53000Y19743D02*
D03*
X54750Y16243D02*
D03*
X53000Y12743D02*
D03*
X49500Y68743D02*
D03*
Y61743D02*
D03*
Y47743D02*
D03*
Y40743D02*
D03*
X51250Y30243D02*
D03*
X49500Y26743D02*
D03*
X51250Y23243D02*
D03*
X49500Y19743D02*
D03*
X51250Y16243D02*
D03*
X49500Y12743D02*
D03*
X47750Y79243D02*
D03*
X46000Y75743D02*
D03*
X47750Y72243D02*
D03*
X46000Y68743D02*
D03*
X47750Y65243D02*
D03*
X46000Y61743D02*
D03*
X47750Y51243D02*
D03*
X46000Y47743D02*
D03*
X47750Y23243D02*
D03*
X46000Y19743D02*
D03*
X47750Y16243D02*
D03*
X46000Y12743D02*
D03*
X44250Y79243D02*
D03*
X42500Y75743D02*
D03*
X44250Y72243D02*
D03*
X42500Y68743D02*
D03*
X44250Y65243D02*
D03*
X42500Y61743D02*
D03*
X44250Y58243D02*
D03*
Y51243D02*
D03*
Y37243D02*
D03*
X42500Y33743D02*
D03*
X44250Y23243D02*
D03*
X42500Y19743D02*
D03*
X44250Y16243D02*
D03*
X42500Y12743D02*
D03*
X44250Y9243D02*
D03*
X42500Y5743D02*
D03*
X40750Y79243D02*
D03*
X39000Y75743D02*
D03*
X40750Y72243D02*
D03*
X39000Y68743D02*
D03*
X40750Y65243D02*
D03*
X39000Y61743D02*
D03*
Y47743D02*
D03*
Y33743D02*
D03*
X40750Y16243D02*
D03*
X39000Y12743D02*
D03*
X40750Y9243D02*
D03*
X37250Y79243D02*
D03*
X35500Y75743D02*
D03*
X37250Y72243D02*
D03*
X35500Y68743D02*
D03*
X37250Y65243D02*
D03*
X35500Y61743D02*
D03*
X37250Y51243D02*
D03*
X35500Y47743D02*
D03*
X37250Y44243D02*
D03*
X35500Y40743D02*
D03*
X37250Y30243D02*
D03*
X35500Y26743D02*
D03*
Y19743D02*
D03*
X37250Y16243D02*
D03*
X35500Y12743D02*
D03*
X33750Y79243D02*
D03*
X32000Y75743D02*
D03*
X33750Y72243D02*
D03*
X32000Y68743D02*
D03*
X33750Y65243D02*
D03*
X32000Y61743D02*
D03*
X33750Y51243D02*
D03*
X32000Y47743D02*
D03*
X33750Y44243D02*
D03*
X32000Y40743D02*
D03*
Y26743D02*
D03*
X33750Y23243D02*
D03*
X32000Y19743D02*
D03*
X33750Y16243D02*
D03*
X28500Y75743D02*
D03*
X30250Y72243D02*
D03*
X28500Y68743D02*
D03*
X30250Y65243D02*
D03*
Y44243D02*
D03*
X28500Y40743D02*
D03*
X30250Y37243D02*
D03*
X28500Y26743D02*
D03*
X30250Y23243D02*
D03*
X28500Y19743D02*
D03*
X26750Y72243D02*
D03*
X25000Y68743D02*
D03*
X26750Y65243D02*
D03*
X25000Y54743D02*
D03*
X26750Y44243D02*
D03*
X25000Y40743D02*
D03*
X26750Y37243D02*
D03*
X25000Y33743D02*
D03*
X26750Y30243D02*
D03*
X25000Y26743D02*
D03*
X26750Y23243D02*
D03*
X21500Y68743D02*
D03*
X23250Y65243D02*
D03*
X21500Y54743D02*
D03*
X23250Y44243D02*
D03*
X21500Y40743D02*
D03*
X23250Y37243D02*
D03*
X21500Y33743D02*
D03*
X23250Y30243D02*
D03*
X21500Y26743D02*
D03*
X19750Y65243D02*
D03*
Y44243D02*
D03*
X18000Y40743D02*
D03*
X19750Y37243D02*
D03*
X18000Y33743D02*
D03*
X19750Y30243D02*
D03*
X87500Y24000D02*
D03*
X65035Y69000D02*
D03*
X71000Y69497D02*
D03*
X62500Y61000D02*
D03*
X103500Y21000D02*
D03*
X96500Y50500D02*
D03*
X41535Y50000D02*
D03*
X91000Y19500D02*
D03*
X58535Y45500D02*
D03*
X62535Y40000D02*
D03*
X65035Y30500D02*
D03*
X59535Y27000D02*
D03*
X87035Y41000D02*
D03*
X77035Y77999D02*
D03*
X72035Y78000D02*
D03*
X80535Y70500D02*
D03*
X97535Y44000D02*
D03*
X94535Y53500D02*
D03*
X94035Y60500D02*
D03*
X90035Y64000D02*
D03*
X98035Y57500D02*
D03*
X100354Y47819D02*
D03*
X73035Y46339D02*
D03*
X68705Y55000D02*
D03*
X73035D02*
D03*
X77366D02*
D03*
X68705Y50669D02*
D03*
X73035D02*
D03*
X77366D02*
D03*
X68705Y46339D02*
D03*
X77366D02*
D03*
M02*
