G04 Layer_Color=32896*
%FSLAX25Y25*%
%MOIN*%
G70*
G01*
G75*
%ADD42C,0.00787*%
%ADD43C,0.00700*%
D42*
X124535Y99500D02*
X134535D01*
Y59500D02*
Y99500D01*
X124535Y59500D02*
X134535D01*
X124535D02*
Y99500D01*
X120802Y59528D02*
X127873Y52457D01*
X99589Y24173D02*
X127873Y52457D01*
X92518Y31244D02*
X99589Y24173D01*
X92518Y31244D02*
X120802Y59528D01*
X125535Y2500D02*
Y12500D01*
X45535Y2500D02*
X125535D01*
X45535D02*
Y12500D01*
X125535D01*
D43*
X41336Y8299D02*
X42436D01*
X41886D01*
Y5550D01*
X42436Y5000D01*
X42986D01*
X43535Y5550D01*
X38037Y5000D02*
X40236D01*
X38037Y7199D01*
Y7749D01*
X38587Y8299D01*
X39687D01*
X40236Y7749D01*
X124144Y63390D02*
Y62290D01*
Y62840D01*
X121395D01*
X120845Y62290D01*
Y61740D01*
X121395Y61190D01*
X124144Y66689D02*
Y64490D01*
X122494D01*
X123044Y65589D01*
Y66139D01*
X122494Y66689D01*
X121395D01*
X120845Y66139D01*
Y65039D01*
X121395Y64490D01*
X118372Y79542D02*
X119471D01*
X118921D01*
Y76793D01*
X119471Y76243D01*
X120021D01*
X120571Y76793D01*
X115073Y79542D02*
X116172Y78992D01*
X117272Y77893D01*
Y76793D01*
X116722Y76243D01*
X115622D01*
X115073Y76793D01*
Y77343D01*
X115622Y77893D01*
X117272D01*
M02*
