G04 Layer_Color=65535*
%FSLAX25Y25*%
%MOIN*%
G70*
G01*
G75*
%ADD31C,0.01000*%
%ADD34C,0.01575*%
%ADD42C,0.00500*%
%ADD43C,0.00600*%
%ADD44C,0.00800*%
%ADD45C,0.00787*%
%ADD46C,0.00700*%
%ADD47R,0.01000X0.02000*%
%ADD48R,0.01181X0.05000*%
%ADD49R,0.01500X0.01000*%
D31*
X65882Y68701D02*
Y81299D01*
X51118Y68701D02*
Y81299D01*
X65882D01*
X51118Y68701D02*
X65882D01*
X114508Y19425D02*
Y22575D01*
X126713Y25497D02*
X133951Y18259D01*
X137153Y20626D02*
X145504Y28977D01*
X129079Y28699D02*
X137431Y37051D01*
D34*
X64024Y60469D02*
G03*
X64024Y60469I-689J0D01*
G01*
D42*
X46063Y57300D02*
G03*
X46063Y55900I0J-700D01*
G01*
X46161Y56950D02*
G03*
X46161Y56250I0J-350D01*
G01*
X46260Y54632D02*
X46752D01*
X46260Y58569D02*
X46752D01*
X53248Y54632D02*
X53740D01*
X53248Y58569D02*
X53740D01*
Y54632D02*
Y58569D01*
X46260Y54632D02*
Y58569D01*
X53531Y60532D02*
X57468D01*
X53531Y64468D02*
X57468D01*
X93468Y39531D02*
Y43468D01*
X89531Y39531D02*
Y43468D01*
X75067Y70531D02*
Y74468D01*
X79004Y70531D02*
Y74468D01*
X70067Y70531D02*
Y74468D01*
X74004Y70531D02*
Y74468D01*
X61067Y32032D02*
X65004D01*
X61067Y35969D02*
X65004D01*
X101567Y65969D02*
X105504D01*
X101567Y62032D02*
X105504D01*
D43*
X88600Y34599D02*
X88600Y28300D01*
X93400D02*
X93400Y34599D01*
X92335Y67600D02*
X98635Y67600D01*
X92335Y72400D02*
X98635Y72400D01*
X92335Y74600D02*
X98635Y74600D01*
X92335Y79400D02*
X98635Y79400D01*
X102436Y53100D02*
X108735D01*
X102436Y57900D02*
X108735D01*
X35436Y57400D02*
X41735D01*
X35436Y52600D02*
X41735D01*
X71400Y20901D02*
Y27200D01*
X66600Y20901D02*
Y27200D01*
X40006Y21611D02*
X44460Y26066D01*
X36612Y25006D02*
X41066Y29460D01*
X108135Y27099D02*
X108135Y20800D01*
X112935D02*
X112935Y27099D01*
X32506Y29612D02*
X36960Y34066D01*
X29111Y33006D02*
X33566Y37460D01*
X116279Y22772D02*
X121791D01*
X116279Y19228D02*
X121791D01*
D44*
X43995Y47519D02*
X55019Y36494D01*
X37981Y41506D02*
X49005Y30481D01*
X55019Y36494D01*
X37981Y41506D02*
X43995Y47519D01*
D45*
X81894Y63069D02*
X85435D01*
Y59528D02*
Y63069D01*
Y38269D02*
Y41811D01*
X81894Y38269D02*
X85435D01*
X60634D02*
Y41811D01*
Y38269D02*
X64177D01*
X60634Y59528D02*
Y60668D01*
X63035Y63069D01*
X64177D01*
D46*
X24199Y68799D02*
X23100D01*
X23650D01*
Y66050D01*
X23100Y65500D01*
X22550D01*
X22000Y66050D01*
X25299Y65500D02*
X26399D01*
X25849D01*
Y68799D01*
X25299Y68249D01*
X91699Y24249D02*
X91149Y24799D01*
X90050D01*
X89500Y24249D01*
Y22050D01*
X90050Y21500D01*
X91149D01*
X91699Y22050D01*
X92799Y21500D02*
X93899D01*
X93349D01*
Y24799D01*
X92799Y24249D01*
X82000Y24799D02*
Y21500D01*
X84199D01*
X85299D02*
X86399D01*
X85849D01*
Y24799D01*
X85299Y24249D01*
X74535Y38299D02*
Y35550D01*
X75085Y35000D01*
X76185D01*
X76735Y35550D01*
Y38299D01*
X80034D02*
X77834D01*
Y36650D01*
X78934Y37199D01*
X79484D01*
X80034Y36650D01*
Y35550D01*
X79484Y35000D01*
X78384D01*
X77834Y35550D01*
X123868Y40833D02*
X121535Y38500D01*
X123091Y36945D01*
X125812Y38111D02*
X126590D01*
X127367Y37334D01*
Y36556D01*
X126978Y36167D01*
X126201D01*
X125812Y36556D01*
X126201Y36167D01*
X126201Y35390D01*
X125812Y35001D01*
X125034D01*
X124257Y35778D01*
Y36556D01*
X26246Y30707D02*
Y31484D01*
X25468Y32262D01*
X24691D01*
X23136Y30707D01*
Y29929D01*
X23913Y29152D01*
X24691D01*
X25080Y27985D02*
X25857Y27208D01*
X25468Y27597D01*
X27801Y29929D01*
X27024D01*
X28967Y27985D02*
X29745D01*
X30523Y27208D01*
Y26430D01*
X30134Y26041D01*
X29356D01*
X28967Y26430D01*
X29356Y26041D01*
Y25264D01*
X28967Y24875D01*
X28190D01*
X27412Y25653D01*
Y26430D01*
X111199Y65249D02*
X110650Y65799D01*
X109550D01*
X109000Y65249D01*
Y63050D01*
X109550Y62500D01*
X110650D01*
X111199Y63050D01*
X112299Y62500D02*
X113399D01*
X112849D01*
Y65799D01*
X112299Y65249D01*
X117247Y62500D02*
X115048D01*
X117247Y64699D01*
Y65249D01*
X116698Y65799D01*
X115598D01*
X115048Y65249D01*
X60699Y30749D02*
X60150Y31299D01*
X59050D01*
X58500Y30749D01*
Y28550D01*
X59050Y28000D01*
X60150D01*
X60699Y28550D01*
X61799Y30749D02*
X62349Y31299D01*
X63448D01*
X63998Y30749D01*
Y30199D01*
X63448Y29649D01*
X62899D01*
X63448D01*
X63998Y29100D01*
Y28550D01*
X63448Y28000D01*
X62349D01*
X61799Y28550D01*
X70949Y81992D02*
X70399Y82542D01*
X69300D01*
X68750Y81992D01*
Y79793D01*
X69300Y79243D01*
X70399D01*
X70949Y79793D01*
X72049Y81992D02*
X72599Y82542D01*
X73698D01*
X74248Y81992D01*
Y81443D01*
X73698Y80893D01*
X74248Y80343D01*
Y79793D01*
X73698Y79243D01*
X72599D01*
X72049Y79793D01*
Y80343D01*
X72599Y80893D01*
X72049Y81443D01*
Y81992D01*
X72599Y80893D02*
X73698D01*
X103286Y23199D02*
X102736Y22649D01*
Y21550D01*
X103286Y21000D01*
X105486D01*
X106035Y21550D01*
Y22649D01*
X105486Y23199D01*
X106035Y26498D02*
Y24299D01*
X103836Y26498D01*
X103286D01*
X102736Y25948D01*
Y24849D01*
X103286Y24299D01*
X79199Y81749D02*
X78649Y82299D01*
X77550D01*
X77000Y81749D01*
Y79550D01*
X77550Y79000D01*
X78649D01*
X79199Y79550D01*
X80299Y82299D02*
X82498D01*
Y81749D01*
X80299Y79550D01*
Y79000D01*
X96699Y42249D02*
X96149Y42799D01*
X95050D01*
X94500Y42249D01*
Y40050D01*
X95050Y39500D01*
X96149D01*
X96699Y40050D01*
X99998Y42799D02*
X98899Y42249D01*
X97799Y41150D01*
Y40050D01*
X98349Y39500D01*
X99448D01*
X99998Y40050D01*
Y40600D01*
X99448Y41150D01*
X97799D01*
X45199Y63749D02*
X44649Y64299D01*
X43550D01*
X43000Y63749D01*
Y61550D01*
X43550Y61000D01*
X44649D01*
X45199Y61550D01*
X46299Y61000D02*
X47399D01*
X46849D01*
Y64299D01*
X46299Y63749D01*
X49048D02*
X49598Y64299D01*
X50697D01*
X51247Y63749D01*
Y61550D01*
X50697Y61000D01*
X49598D01*
X49048Y61550D01*
Y63749D01*
X34453Y22000D02*
Y22777D01*
X33676Y23555D01*
X32898D01*
X31343Y22000D01*
Y21222D01*
X32120Y20445D01*
X32898D01*
X34842Y17723D02*
X33287Y19278D01*
X36397D01*
X36786Y19667D01*
Y20445D01*
X36008Y21222D01*
X35231D01*
X37952Y19278D02*
X39507Y17723D01*
X39118Y17334D01*
X36008D01*
X35620Y16946D01*
X73751Y21699D02*
X73201Y21149D01*
Y20050D01*
X73751Y19500D01*
X75950D01*
X76500Y20050D01*
Y21149D01*
X75950Y21699D01*
X76500Y24998D02*
Y22799D01*
X74301Y24998D01*
X73751D01*
X73201Y24448D01*
Y23349D01*
X73751Y22799D01*
X73201Y28297D02*
Y26098D01*
X74850D01*
X74301Y27198D01*
Y27747D01*
X74850Y28297D01*
X75950D01*
X76500Y27747D01*
Y26648D01*
X75950Y26098D01*
X37235Y61749D02*
X36685Y62299D01*
X35585D01*
X35035Y61749D01*
Y59550D01*
X35585Y59000D01*
X36685D01*
X37235Y59550D01*
X38334Y59000D02*
X39434D01*
X38884D01*
Y62299D01*
X38334Y61749D01*
X43283Y62299D02*
X42183Y61749D01*
X41083Y60650D01*
Y59550D01*
X41633Y59000D01*
X42733D01*
X43283Y59550D01*
Y60100D01*
X42733Y60650D01*
X41083D01*
X106500Y82299D02*
Y79000D01*
X108699D01*
X111998Y82299D02*
X109799D01*
Y79000D01*
X111998D01*
X109799Y80650D02*
X110899D01*
X113098Y82299D02*
Y79000D01*
X114747D01*
X115297Y79550D01*
Y81749D01*
X114747Y82299D01*
X113098D01*
X116397Y79000D02*
X117496D01*
X116947D01*
Y82299D01*
X116397Y81749D01*
X37165Y48050D02*
X36777Y47661D01*
Y46106D01*
X38332Y46106D01*
X38721Y46495D01*
X36777Y46106D02*
X35610Y44940D01*
X37165Y43385D02*
X37943Y42607D01*
X37554Y42996D01*
X39887Y45329D01*
X39109D01*
X43500Y79799D02*
Y79249D01*
X44600Y78149D01*
X45699Y79249D01*
Y79799D01*
X44600Y78149D02*
Y76500D01*
X48998D02*
X46799D01*
X48998Y78699D01*
Y79249D01*
X48448Y79799D01*
X47349D01*
X46799Y79249D01*
X46000Y52799D02*
Y49500D01*
X48199D01*
X51498Y52249D02*
X50948Y52799D01*
X49849D01*
X49299Y52249D01*
Y50050D01*
X49849Y49500D01*
X50948D01*
X51498Y50050D01*
X52598Y49500D02*
X53698D01*
X53148D01*
Y52799D01*
X52598Y52249D01*
X112000Y56500D02*
Y59799D01*
X113649D01*
X114199Y59249D01*
Y58149D01*
X113649Y57600D01*
X112000D01*
X113100D02*
X114199Y56500D01*
X115299D02*
X116399D01*
X115849D01*
Y59799D01*
X115299Y59249D01*
X92535Y80500D02*
Y83799D01*
X94185D01*
X94735Y83249D01*
Y82149D01*
X94185Y81600D01*
X92535D01*
X93635D02*
X94735Y80500D01*
X95834Y83249D02*
X96384Y83799D01*
X97484D01*
X98034Y83249D01*
Y82699D01*
X97484Y82149D01*
X96934D01*
X97484D01*
X98034Y81600D01*
Y81050D01*
X97484Y80500D01*
X96384D01*
X95834Y81050D01*
X92500Y63000D02*
Y66299D01*
X94150D01*
X94699Y65749D01*
Y64649D01*
X94150Y64100D01*
X92500D01*
X93600D02*
X94699Y63000D01*
X97998D02*
X95799D01*
X97998Y65199D01*
Y65749D01*
X97448Y66299D01*
X96349D01*
X95799Y65749D01*
X117365Y27694D02*
Y24395D01*
X119014D01*
X119564Y24945D01*
Y27144D01*
X119014Y27694D01*
X117365D01*
X120664Y24395D02*
X121764D01*
X121214D01*
Y27694D01*
X120664Y27144D01*
X146491Y39587D02*
X145941Y40137D01*
X144842D01*
X144292Y39587D01*
Y37388D01*
X144842Y36838D01*
X145941D01*
X146491Y37388D01*
X147591D02*
X148141Y36838D01*
X149240D01*
X149790Y37388D01*
Y39587D01*
X149240Y40137D01*
X148141D01*
X147591Y39587D01*
Y39037D01*
X148141Y38488D01*
X149790D01*
D47*
X113035Y74000D02*
D03*
D48*
X112126D02*
D03*
D49*
X113786Y74000D02*
D03*
M02*
